<?xml version="1.0" standalone="no"?>
<!DOCTYPE svg PUBLIC "-//W3C//DTD SVG 1.1//EN" "http://www.w3.org/Graphics/SVG/1.1/DTD/svg11.dtd" >
<svg xmlns="http://www.w3.org/2000/svg">
<metadata></metadata>
<defs>
<font id="comboregular" horiz-adv-x="1064" >
<font-face units-per-em="2048" ascent="1638" descent="-410" />
<missing-glyph horiz-adv-x="614" />
<glyph horiz-adv-x="0" />
<glyph unicode="&#xd;" horiz-adv-x="614" />
<glyph horiz-adv-x="0" />
<glyph horiz-adv-x="0" />
<glyph unicode=" "  horiz-adv-x="614" />
<glyph unicode="&#x09;" horiz-adv-x="614" />
<glyph unicode="&#xa0;" horiz-adv-x="614" />
<glyph unicode="!" horiz-adv-x="542" d="M170 49q0 37 7 72t21.5 62.5t31.5 45t40 17.5t41.5 -17.5t32.5 -45t21.5 -62.5t7.5 -72q0 -53 -30 -66.5t-73 -13.5t-71.5 13.5t-28.5 66.5zM174 1235q0 59 5 94t16.5 53.5t30 24.5t44.5 6q27 0 46.5 -6t29.5 -24.5t15.5 -53.5t5.5 -94q0 -53 -3.5 -137t-9.5 -178.5 t-15 -190.5t-19.5 -174t-23 -126t-26.5 -48t-26.5 48t-22.5 126t-19 174t-15.5 190.5t-9.5 178.5t-3 137z" />
<glyph unicode="&#x22;" horiz-adv-x="718" d="M102 1409q0 53 28 67.5t67 14.5t65.5 -14.5t26.5 -67.5q0 -37 -7.5 -102.5t-19.5 -130t-28.5 -111.5t-36.5 -47t-38 47t-30 111.5t-19.5 130t-7.5 102.5zM430 1409q0 53 27.5 67.5t66.5 14.5t65.5 -14.5t26.5 -67.5q0 -37 -7 -102.5t-19 -130t-29 -111.5t-37 -47 t-37.5 47t-30 111.5t-19.5 130t-7 102.5z" />
<glyph unicode="#" horiz-adv-x="1339" d="M102 391l31 98h205l94 312h-207l29 98h207l145 487l94 -26l-137 -461h369l145 487l94 -26l-137 -461h203l-27 -98h-206l-93 -312h205l-29 -98h-204l-146 -487l-94 26l137 461h-368l-146 -487l-94 26l137 461h-207zM440 489h369l94 312h-371z" />
<glyph unicode="$" d="M154 350l165 39q2 -90 15.5 -150.5t36 -98.5t51.5 -58.5t63 -26.5v551q-55 35 -110.5 72t-98.5 81t-69.5 101.5t-26.5 130.5q0 158 82 238t223 90v205h88v-205q63 -6 121 -27.5t102 -66.5t73.5 -116t35.5 -173l-153 -35q-2 88 -17.5 149.5t-40 99.5t-56.5 58.5t-65 26.5 v-502q59 -35 120 -73.5t110 -88t79.5 -113t30.5 -147.5q0 -322 -340 -340v-176h-88v176q-68 6 -126 31t-102 70t-71.5 113.5t-31.5 164.5zM342 1012q0 -72 41 -124t102 -97v444q-82 -16 -112.5 -79.5t-30.5 -143.5zM573 53q86 14 128 82t42 164q0 84 -50 143.5t-120 108.5 v-498z" />
<glyph unicode="%" horiz-adv-x="1724" d="M143 0zM143 770q0 100 18.5 199.5t52.5 177.5t79 126t98 48t98 -48t79 -126t52.5 -177t18.5 -200q0 -86 -19.5 -139t-53.5 -82t-79 -38t-96 -9t-96 9t-79 38t-53.5 82t-19.5 139zM260 770q0 -61 10 -98t28.5 -56.5t42 -25.5t50.5 -6t50.5 6t41.5 25.5t28.5 56.5t10.5 98 q0 88 -10.5 174t-27.5 154t-41.5 109.5t-51.5 41.5q-29 0 -52.5 -41.5t-41 -109.5t-27.5 -154t-10 -174zM598 -70l434 1456l94 -26l-434 -1456zM1085 237q0 100 18.5 199.5t52.5 177.5t79 126t98 48t98 -48t79 -126t52.5 -177t18.5 -200q0 -86 -19.5 -139t-53.5 -82t-79 -38 t-96 -9t-96 9t-79 38t-53.5 82t-19.5 139zM1202 237q0 -61 10 -98t28.5 -56.5t42 -25.5t50.5 -6t50.5 6t41.5 25.5t28.5 56.5t10.5 98q0 88 -10.5 174t-27.5 154t-41.5 109.5t-51.5 41.5q-29 0 -52.5 -41.5t-41 -109.5t-27.5 -154t-10 -174z" />
<glyph unicode="&#x26;" horiz-adv-x="1083" d="M123 946q0 150 32.5 240t89 138t132.5 63.5t160 15.5q80 0 150.5 -13.5t125.5 -53.5t90 -113.5t45 -196.5l-176 -49q-2 113 -21.5 181.5t-51 104t-73.5 47t-89 11.5t-90.5 -12.5t-75 -51t-50 -112.5t-18.5 -199q0 -63 2 -124.5t6 -121.5h772v-125l-202 7l28 -885h-159 l18 551h-14q-18 -55 -40 -106.5t-49.5 -89.5t-59.5 -60.5t-68 -22.5q-86 0 -162 84t-131.5 221.5t-88 312.5t-32.5 359zM322 600q14 -117 35.5 -217t49 -174t60.5 -116t70 -42q33 0 67.5 45t66 119t58.5 170t43 201z" />
<glyph unicode="'" horiz-adv-x="391" d="M102 1409q0 53 28 67.5t67 14.5t65.5 -14.5t26.5 -67.5q0 -37 -7.5 -102.5t-19.5 -130t-28.5 -111.5t-36.5 -47t-38 47t-30 111.5t-19.5 130t-7.5 102.5z" />
<glyph unicode="(" horiz-adv-x="512" d="M88 659q0 291 26.5 463t75 261.5t115 115t146.5 25.5v-82q-37 0 -71 -7.5t-62.5 -33t-52 -74.5t-40 -136t-26 -217.5t-9.5 -314.5t9.5 -314t26 -217t40 -136t52 -75t62.5 -33t71 -7v-82q-53 0 -100.5 10.5t-88.5 41t-72.5 89t-54 154.5t-35 235.5t-12.5 333.5z" />
<glyph unicode=")" horiz-adv-x="512" d="M61 -123q37 0 71 7t62.5 33t52 75t40 136t26 217t9.5 314t-9.5 314.5t-26 217.5t-40 136t-52 74.5t-62.5 33t-71 7.5v82q80 0 146.5 -25.5t115 -115t75 -261.5t26.5 -463q0 -195 -12.5 -334t-35 -235t-54 -154.5t-72.5 -89t-88 -41t-101 -10.5v82z" />
<glyph unicode="*" horiz-adv-x="1097" d="M143 895q0 29 37 49q20 12 61.5 30.5t86.5 36t86.5 30t64.5 12.5q6 0 16.5 -3t10.5 -14q0 -16 -30 -48t-70.5 -65.5t-82.5 -64.5t-67 -45q-20 -12 -39 -12q-29 0 -51.5 32.5t-22.5 61.5zM143 1243q0 29 22.5 61.5t51.5 32.5q18 0 39 -12q25 -14 67 -45t82.5 -64.5 t70.5 -65.5t30 -48q0 -10 -10.5 -13.5t-16.5 -3.5q-23 0 -64.5 12.5t-86.5 30t-86 36t-62 30.5q-37 20 -37 49zM469 672q0 31 6 86t16.5 109.5t26 94t31.5 39.5t30.5 -39.5t24.5 -94t16.5 -110t6.5 -85.5q0 -47 -22.5 -58.5t-55.5 -11.5t-56.5 11.5t-23.5 58.5zM469 1466 q0 47 23.5 58.5t56.5 11.5t55.5 -11.5t22.5 -58.5q0 -31 -6.5 -86t-16.5 -109t-24.5 -94t-30.5 -40t-31.5 40t-26 94t-16.5 109.5t-6 85.5zM592 1036q0 10 10 13.5t16 3.5q23 0 65 -12.5t87 -30t86 -36t62 -30.5q37 -20 36 -49q0 -29 -22.5 -61.5t-50.5 -32.5q-18 0 -39 12 q-25 14 -67 45t-83 64.5t-70.5 65.5t-29.5 48zM592 1102q0 16 29.5 48t70.5 65.5t83 64.5t67 45q20 12 39 12q29 0 51 -32.5t22 -61.5t-36 -49q-20 -12 -61.5 -30.5t-86.5 -36t-87 -30t-65 -12.5q-6 0 -16 3.5t-10 13.5z" />
<glyph unicode="+" d="M143 608v103h338v338h103v-338h338v-103h-338v-338h-103v338h-338z" />
<glyph unicode="," horiz-adv-x="419" d="M66 -182q41 35 71.5 88t30.5 106q-29 20 -47.5 62.5t-18.5 101.5q0 57 32 71.5t77 14.5t75.5 -14.5t30.5 -71.5q0 -84 -20.5 -151.5t-51 -118.5t-66.5 -87t-66 -57z" />
<glyph unicode="-" horiz-adv-x="796" d="M102 588v108h592v-137z" />
<glyph unicode="." horiz-adv-x="419" d="M102 176q0 57 32 71.5t77 14.5t75.5 -14.5t30.5 -71.5q0 -39 -8 -76t-22.5 -66.5t-33.5 -47t-42 -17.5t-43.5 17.5t-34.5 47t-22.5 66.5t-8.5 76z" />
<glyph unicode="/" horiz-adv-x="491" d="M-100 -115l596 1637l96 -35l-596 -1637z" />
<glyph unicode="0" d="M129 406q0 170 30.5 333.5t85 292.5t128 209t159.5 80t160 -80t128 -209t85 -293t31 -333q0 -141 -32 -227.5t-87 -132.5t-129 -61.5t-156 -15.5t-155.5 15.5t-128.5 61.5t-87 132t-32 228zM295 406q0 -109 18.5 -174.5t51 -101.5t75.5 -47t92 -11t92.5 11t76 47 t51 101.5t18.5 174.5q0 152 -18.5 300t-50 264.5t-75 188.5t-94.5 72t-94 -72t-74.5 -188.5t-50 -265t-18.5 -299.5z" />
<glyph unicode="1" d="M106 1098l414 202h115v-1185l272 10v-125h-723v98l275 11l55 1075l-352 -199z" />
<glyph unicode="2" d="M123 0v100q123 78 235.5 186.5t197.5 230.5t135 248t50 236q0 49 -10 91.5t-34.5 73t-64.5 48t-97 17.5q-86 0 -146.5 -36t-60.5 -132q0 -51 10 -109l-154 -20q-23 68 -22 129q0 74 29.5 123t81 79.5t119 43t143.5 12.5q184 0 278 -86.5t94 -233.5q0 -100 -42 -214.5 t-120.5 -231.5t-190.5 -228.5t-249 -207.5l582 -17v-102h-764z" />
<glyph unicode="3" d="M129 250q0 61 18 117l156 -23q-8 -41 -8 -94q0 -51 18.5 -86t51 -55.5t75.5 -28.5t92 -8t92.5 9t76 35.5t51 74t18.5 120.5q0 37 -11 81t-40 87t-77 80t-120 59l78 56q92 -23 155.5 -66t103.5 -95t58.5 -105.5t18.5 -96.5q0 -100 -32 -165.5t-87 -104.5t-129 -55.5 t-156 -16.5t-155.5 15.5t-128.5 48.5t-87 86t-32 131zM180 1063q0 74 30 123t81 79.5t118.5 43t143.5 12.5t143.5 -12.5t118.5 -43t81 -79.5t30 -123q0 -86 -37 -172t-113 -153.5t-188.5 -109.5t-265.5 -42v82q104 0 177.5 20.5t123 53t77 75.5t41 86t16.5 85t3 75 q0 96 -60.5 132t-146.5 36t-146.5 -36t-60.5 -132q0 -51 10 -109l-153 -20q-23 68 -23 129z" />
<glyph unicode="4" d="M123 596q0 96 27.5 188.5t73.5 179.5t106.5 168.5t124.5 157.5h80q-49 -78 -91.5 -159.5t-75 -162.5t-51 -159t-18.5 -147q0 -164 57.5 -244t202.5 -80h121l45 719h115v-719h139v-82h-139v-256h-181l17 256h-117q-78 0 -155.5 12.5t-140 48t-101.5 102t-39 177.5z" />
<glyph unicode="5" d="M129 250q0 61 18 117l156 -23q-8 -41 -8 -94q0 -51 18.5 -86t51 -55.5t75.5 -28.5t92 -8t92.5 9t76 35.5t51 74t18.5 120.5q0 49 -16.5 108.5t-67.5 113t-146.5 89t-252.5 35.5h-103l41 643h600v-124l-438 18l-74 -451q174 0 294 -45t192.5 -110.5t104.5 -140t32 -136.5 q0 -100 -32 -165.5t-87 -104.5t-129 -55.5t-156 -16.5t-155.5 15.5t-128.5 48.5t-87 86t-32 131z" />
<glyph unicode="6" d="M131 305q0 150 49 291t131 269t189.5 243t224.5 213l70 -68q-147 -135 -245.5 -263t-158.5 -257q147 -10 250.5 -55t168 -110.5t94.5 -144.5t30 -157q0 -82 -33 -138t-89 -92t-131 -51.5t-159 -15.5q-80 0 -150.5 15.5t-124.5 53.5t-85 103.5t-31 163.5zM297 309 q0 -76 18.5 -122t49 -71.5t72.5 -34.5t89 -9q113 0 177.5 44t64.5 167q0 63 -15.5 127.5t-59.5 117t-125 87t-210 40.5q-33 -86 -47 -172t-14 -174z" />
<glyph unicode="7" d="M156 37q115 111 209 248t165 288l-213 54l23 90l229 -58q53 131 89 261.5t53 250.5l-551 17v102h743q-6 -176 -55 -345t-127 -322l127 -31l-23 -90l-149 37q-104 -193 -227 -340.5t-224 -229.5z" />
<glyph unicode="8" d="M129 250q0 66 22.5 129t60.5 117.5t87 98.5t102 69q-49 27 -92 70.5t-76.5 96t-53 111.5t-19.5 121q0 74 29.5 123t81 79.5t119 43t142.5 12.5q76 0 143.5 -12.5t119 -43t81 -79.5t29.5 -123q0 -61 -19.5 -120.5t-53 -112t-77.5 -96.5t-93 -70q55 -25 104 -69t87 -98.5 t60.5 -118t22.5 -128.5q0 -78 -32 -131t-87 -86t-129 -48.5t-156 -15.5t-155.5 15.5t-128.5 48.5t-87 86t-32 131zM295 250q0 -51 18.5 -86t51 -55.5t75.5 -28.5t92 -8t92.5 8t76 28.5t51 55.5t18.5 86q0 72 -18.5 138.5t-50 116.5t-75 80.5t-94.5 30.5t-94 -30.5 t-74.5 -80.5t-50 -116.5t-18.5 -138.5zM326 1063q0 -68 16 -132.5t44 -113.5t65.5 -79.5t80.5 -30.5t81 30.5t66 79.5t44 113.5t16 132.5q0 96 -60.5 132t-146.5 36t-146 -36t-60 -132z" />
<glyph unicode="9" d="M129 1040q0 76 32 130.5t87 87t129 48t155 15.5q82 0 156 -16.5t129 -57.5t87 -112t32 -177q0 -150 -52.5 -294t-134 -273t-181 -236.5t-193.5 -185.5l-70 68q141 135 235.5 263t147.5 255q-152 12 -258 59.5t-173 115t-97.5 149.5t-30.5 161zM295 1040q0 -68 14.5 -137 t59.5 -125.5t128 -95.5t220 -47q29 80 41 159.5t12 163.5q0 82 -18.5 133.5t-51 79t-75.5 38t-93 10.5q-49 0 -92 -8.5t-75.5 -29t-51 -55.5t-18.5 -86z" />
<glyph unicode=":" horiz-adv-x="419" d="M102 0zM102 176q0 57 32 71.5t77 14.5t75.5 -14.5t30.5 -71.5q0 -39 -8 -76t-22.5 -66.5t-33.5 -47t-42 -17.5t-43.5 17.5t-34.5 47t-22.5 66.5t-8.5 76zM102 893q0 57 32 71.5t77 14.5t75.5 -14.5t30.5 -71.5q0 -39 -8 -76t-22.5 -66.5t-33.5 -47t-42 -17.5t-43.5 17.5 t-34.5 47t-22.5 66.5t-8.5 76z" />
<glyph unicode=";" horiz-adv-x="419" d="M66 0zM66 -182q41 35 71.5 88t30.5 106q-29 20 -47.5 62.5t-18.5 101.5q0 57 32 71.5t77 14.5t75.5 -14.5t30.5 -71.5q0 -84 -20.5 -151.5t-51 -118.5t-66.5 -87t-66 -57zM102 893q0 57 32 71.5t77 14.5t75.5 -14.5t30.5 -71.5q0 -39 -8 -76t-22.5 -66.5t-33.5 -47 t-42 -17.5t-43.5 17.5t-34.5 47t-22.5 66.5t-8.5 76z" />
<glyph unicode="&#x3c;" d="M143 608v103l779 307v-103l-660 -256l660 -256v-102z" />
<glyph unicode="=" d="M143 424v102h779v-102h-779zM143 793v102h779v-102h-779z" />
<glyph unicode="&#x3e;" d="M143 301v102l660 256l-660 256v103l779 -307v-103z" />
<glyph unicode="?" horiz-adv-x="944" d="M133 1104q0 74 26.5 131t74 97t113 60.5t142.5 20.5q184 0 278.5 -86t94.5 -233q0 -164 -107.5 -349.5t-299.5 -377.5l-60 57q63 78 117.5 164t93.5 172t61.5 171t22.5 163q0 49 -11 91t-36 72.5t-63.5 48t-96.5 17.5q-113 0 -156.5 -54.5t-43.5 -133.5q0 -53 15 -111.5 t40 -116.5l-143 -47q-61 135 -62 244zM369 49q0 37 7 72t21.5 62.5t31.5 45t40 17.5t41 -17.5t32.5 -45t21.5 -62.5t7 -72q0 -53 -29.5 -66.5t-72.5 -13.5t-71.5 13.5t-28.5 66.5z" />
<glyph unicode="@" horiz-adv-x="1710" d="M164 885q0 141 53 227t145.5 132t217.5 61.5t266 15.5q143 0 270 -15.5t222.5 -61.5t151.5 -132t56 -227q0 -76 -8 -143.5t-25 -141.5l-364 -2q4 -33 6 -65.5t2 -65.5q0 -94 -24.5 -151.5t-67.5 -89t-99.5 -42t-119.5 -10.5t-116.5 9.5t-93.5 36t-62.5 73.5t-22.5 123 q0 61 28.5 110t78 82t114 50.5t133.5 17.5h92q-10 70 -25.5 132t-34.5 109.5t-43 74t-48 26.5q-35 0 -63.5 -61.5t-28.5 -163.5l-148 34q20 78 46 128.5t56.5 80t65.5 40.5t72 11q51 0 96 -32.5t83 -89t66.5 -131t45.5 -158.5h249q8 51 11.5 102t3.5 107q0 119 -44 191.5 t-120 111.5t-177.5 51t-213.5 12q-111 0 -209 -12t-171 -51t-115 -111.5t-42 -191.5q0 -117 18.5 -232.5t52.5 -222t82 -198t108.5 -159t129 -105.5t146.5 -38q98 0 183 59.5t157 157.5l90 -51q-90 -109 -198.5 -172t-231.5 -63q-145 0 -270 89t-216.5 234.5t-143.5 328.5 t-52 372zM696 416q0 -53 10.5 -87t31 -53.5t47 -26.5t61.5 -7t64.5 8t52 31.5t36 67.5t13.5 118q0 66 -6 131h-54q-51 0 -97 -10t-82 -31.5t-56.5 -56.5t-20.5 -84z" />
<glyph unicode="A" horiz-adv-x="1114" d="M123 0q2 283 36 538t92 447.5t137 305t169 112.5q92 0 170 -112.5t136.5 -305t92 -447.5t35.5 -538h-178q0 86 -2 167t-6 161h-494q-4 -80 -6 -161t-2 -167h-180zM317 420h482q-12 193 -36 357.5t-55.5 285.5t-69.5 189.5t-81 68.5t-82 -68.5t-69.5 -189.5t-53 -286 t-35.5 -357z" />
<glyph unicode="B" horiz-adv-x="1017" d="M164 1372q154 31 278 31q238 0 366 -103.5t128 -300.5q0 -143 -85 -263t-220 -214q113 -59 163 -126.5t50 -153.5q0 -70 -32 -121t-86 -85t-127 -50.5t-157 -16.5q-119 0 -243 31zM315 70q68 -18 131 -19q94 0 156 47.5t62 145.5q0 66 -26 123t-87 104 q-109 -66 -229 -115zM324 446q84 43 161.5 100.5t138 127t96.5 151.5t36 172q0 154 -76 236t-240 82q-47 0 -98 -6z" />
<glyph unicode="C" horiz-adv-x="1030" d="M123 946q0 150 32.5 240t89 138t132.5 63.5t160 15.5q80 0 150.5 -13.5t125.5 -53.5t90 -113.5t45 -196.5l-176 -49q-2 113 -21.5 181.5t-51 104t-73.5 47t-89 11.5t-90.5 -12.5t-75 -51t-50 -112.5t-18.5 -199q0 -170 17.5 -330.5t49 -286.5t74.5 -202t93 -76 q57 0 103 93.5t79 240.5l141 -29q-29 -86 -63.5 -156.5t-76.5 -121.5t-88 -80t-95 -29q-86 0 -162 84t-131.5 221.5t-88 312.5t-32.5 359z" />
<glyph unicode="D" horiz-adv-x="1058" d="M164 1372q156 31 287 31q248 0 376.5 -103.5t128.5 -300.5q0 -115 -35.5 -249t-113.5 -268t-200 -260t-294 -222h-114zM315 104q123 78 210 185.5t142.5 228.5t82 245t26.5 234q0 154 -78.5 236t-248.5 82q-25 0 -51.5 -2t-55.5 -6z" />
<glyph unicode="E" horiz-adv-x="1030" d="M123 946q0 150 32.5 240t89 138t132.5 63.5t160 15.5q80 0 150.5 -13.5t125.5 -53.5t90 -113.5t45 -196.5l-176 -49q-2 113 -21.5 181.5t-51 104t-73.5 47t-89 11.5t-90.5 -12.5t-75 -51t-50 -112.5t-18.5 -199q0 -84 3 -164t13 -157h400v-93h-387q14 -102 34.5 -190 t47 -152.5t57.5 -101.5t66 -37q57 0 103 93.5t79 240.5l141 -29q-29 -86 -63.5 -156.5t-76.5 -121.5t-88 -80t-95 -29q-86 0 -162 84t-131.5 221.5t-88 312.5t-32.5 359z" />
<glyph unicode="F" horiz-adv-x="815" d="M164 0l35 1372h585v-145l-469 39l15 -641h352v-93h-350l12 -532h-180z" />
<glyph unicode="G" d="M123 946q0 150 35 240t94 138t138 63.5t167 15.5q84 0 161 -14.5t135 -56.5t93 -117.5t37 -198.5l-178 -47q-2 66 -9.5 129t-33 112.5t-73.5 80t-132 30.5q-51 0 -97 -12.5t-81 -51t-55.5 -112.5t-20.5 -199q0 -170 19.5 -330.5t53.5 -286.5t80 -202t101 -76 q33 0 63.5 30t57.5 82t49.5 124.5t38.5 158.5h-219v93h401q-27 -121 -65.5 -224.5t-90 -180.5t-110.5 -121t-125 -44q-90 0 -170 84t-138.5 221.5t-92 312.5t-33.5 359z" />
<glyph unicode="H" horiz-adv-x="1165" d="M164 0l67 1372h113v-747h475v747h113l69 -1372h-180l-2 532h-475v-532h-180z" />
<glyph unicode="I" horiz-adv-x="507" d="M164 0l35 1372h114l31 -1372h-180z" />
<glyph unicode="J" horiz-adv-x="854" d="M20 328q0 35 3.5 71.5t11.5 71.5l174 -47q-8 -29 -12 -68t-4 -73q0 -45 9 -87t30.5 -74t55.5 -51.5t83 -19.5q45 0 78.5 17.5t56 60.5t33 116.5t10.5 184.5v942h113q12 -250 20 -423t13 -285.5t8.5 -175t4.5 -93t1 -39v-10.5q0 -109 -28 -181.5t-74 -115.5t-107.5 -61.5 t-128.5 -18.5q-72 0 -136.5 15.5t-111.5 55.5t-75 109.5t-28 178.5z" />
<glyph unicode="K" horiz-adv-x="987" d="M164 0l35 1372h114l21 -960q174 223 268 454.5t119 505.5h182q-27 -260 -123 -469t-225 -373q57 -16 107.5 -62t87 -114.5t57 -159t20.5 -194.5h-165q0 109 -7.5 187.5t-26 134t-50 89t-78.5 50.5q-41 -47 -81 -90t-81 -80l6 -291h-180z" />
<glyph unicode="L" horiz-adv-x="804" d="M164 0l35 1372h114l29 -1268l422 41v-145h-600z" />
<glyph unicode="M" horiz-adv-x="1738" d="M164 0l35 1372h114l15 -629q33 147 70.5 268.5t80.5 208.5t92.5 135t106.5 48q51 0 96 -45t81 -127t61.5 -197.5t41.5 -255.5q35 139 72 255t79 198t90 127t104 45q70 0 126 -80t95 -219t60.5 -329.5t21.5 -412.5q0 -88 -3.5 -178t-11.5 -184h-178q12 141 17.5 275.5 t5.5 256.5q0 170 -10.5 314.5t-29 250t-46 165t-62.5 59.5q-37 0 -79 -66.5t-83 -184.5t-78.5 -277.5t-68.5 -346.5q2 -23 2 -42v-42q0 -88 -3 -178t-11 -184h-179q12 141 17.5 275.5t5.5 256.5q0 170 -10 314.5t-28.5 250t-46.5 165t-62 59.5q-41 0 -86.5 -78t-90.5 -213 t-83.5 -318.5t-67.5 -394.5l8 -317h-180z" />
<glyph unicode="N" horiz-adv-x="1179" d="M164 0l35 1372h114l15 -665q41 154 83 281.5t89 219.5t100 143.5t119 51.5q76 0 136 -80t103 -219t66 -329.5t23 -412.5q0 -88 -3.5 -178t-11.5 -184h-178q12 141 17.5 275.5t5.5 256.5q0 170 -10.5 314.5t-32 250t-52 165t-69.5 59.5q-47 0 -99.5 -80t-103.5 -219 t-96 -326.5t-76 -402.5l6 -293h-180z" />
<glyph unicode="O" horiz-adv-x="1114" d="M123 946q0 150 35 240t94 138t138 63.5t167 15.5q90 0 169 -15.5t138.5 -63.5t93 -138t33.5 -240q0 -184 -33.5 -359t-92 -312.5t-137.5 -221.5t-171 -84q-90 0 -170 84t-138.5 221.5t-92 312.5t-33.5 359zM303 946q0 -170 19.5 -330.5t53.5 -286.5t80 -202t101 -76 t102.5 76t81 202t53 286.5t19.5 330.5q0 125 -20.5 199t-55.5 112.5t-81 51t-99 12.5q-51 0 -97 -12.5t-81 -51t-55.5 -112.5t-20.5 -199z" />
<glyph unicode="P" horiz-adv-x="966" d="M164 1372q135 31 248 31q238 0 365.5 -103.5t127.5 -300.5q0 -113 -47 -212t-127 -185t-186.5 -156.5t-225.5 -126.5l-6 -319h-114zM322 414q80 47 153.5 109.5t128.5 136t88 158.5t33 179q0 154 -75.5 236t-239.5 82q-16 0 -33 -1t-35 -3z" />
<glyph unicode="Q" horiz-adv-x="1114" d="M123 946q0 150 35 240t94 138t138 63.5t167 15.5q90 0 169 -15.5t138.5 -63.5t93 -138t33.5 -240q0 -166 -27.5 -324.5t-75.5 -290.5t-114.5 -224.5t-144.5 -122.5q29 -12 56.5 -29.5t53 -35t50 -29t45.5 -11.5q10 0 20 3t18.5 15.5t13.5 37t5 65.5l119 -33 q-6 -66 -21.5 -108.5t-35 -67t-45 -35t-54.5 -10.5q-33 0 -76 22.5t-84 48t-77.5 48t-57.5 22.5q-10 0 -23.5 -3t-25.5 -15t-20.5 -37t-8.5 -65l-78 12q10 90 32 137t54 68q-78 29 -145.5 121t-116.5 223t-76.5 291.5t-27.5 326.5zM303 946q0 -170 19.5 -330.5t53.5 -286.5 t80 -202t101 -76t102.5 76t81 202t53 286.5t19.5 330.5q0 125 -20.5 199t-55.5 112.5t-81 51t-99 12.5q-51 0 -97 -12.5t-81 -51t-55.5 -112.5t-20.5 -199z" />
<glyph unicode="R" horiz-adv-x="1007" d="M164 1372q135 31 248 31q238 0 365.5 -103.5t127.5 -300.5q0 -145 -88 -272t-229 -227q104 -43 171.5 -173t67.5 -327h-165q0 109 -7.5 185.5t-26 128t-50 81t-80.5 45.5q-41 -25 -85 -48t-91 -44l-9 -348h-114zM324 442q80 45 152.5 104.5t127.5 131.5t88 152.5 t33 166.5q0 154 -75.5 236t-239.5 82q-16 0 -33 -1t-35 -3z" />
<glyph unicode="S" horiz-adv-x="1028" d="M90 373q45 4 92 8t88 8q4 -115 26.5 -182.5t57.5 -102t81 -44t95 -9.5q127 0 182.5 71t55.5 177q0 78 -45 132t-112.5 98t-145.5 83t-145.5 86t-112.5 108.5t-45 149.5q0 76 28.5 155t77.5 143.5t112.5 106.5t133.5 42q49 0 97 -27.5t91 -77t79 -118t61 -150.5l-174 -51 q-2 82 -16.5 145.5t-36 107.5t-48 66.5t-53.5 22.5q-41 0 -76 -33t-61.5 -84t-42 -112.5t-15.5 -116.5q0 -70 46.5 -117t115 -88t148.5 -80t148.5 -90t114.5 -119.5t46 -169.5q0 -170 -99.5 -256t-308.5 -86q-84 0 -161.5 13.5t-137 56.5t-97.5 123t-44 211z" />
<glyph unicode="T" horiz-adv-x="886" d="M20 1274v98h846v-125l-362 10l28 -1257h-180l31 1262z" />
<glyph unicode="U" horiz-adv-x="1122" d="M123 535q0 113 13.5 229.5t37 225t53 206.5t60.5 176h188q-49 -109 -87 -228.5t-63.5 -239.5t-40 -233.5t-14.5 -211.5q0 -199 79 -303.5t212 -104.5q131 0 211 104.5t80 303.5q0 98 -14.5 211.5t-40 233.5t-63.5 240t-87 228h189q31 -78 60.5 -176t53 -206.5 t36.5 -225.5t13 -229q0 -115 -22.5 -217.5t-73.5 -180.5t-135 -123t-207 -45t-207 45t-135 123t-73.5 180.5t-22.5 217.5z" />
<glyph unicode="V" horiz-adv-x="1136" d="M139 1372h180q0 -264 20.5 -503.5t54.5 -421t80 -289t99 -107.5q37 0 70 49.5t61.5 136.5t51 209.5t39 269t25.5 313.5t9 343h179q-2 -283 -36 -537.5t-92.5 -447t-136 -305.5t-170.5 -113q-90 0 -168.5 113t-137 305.5t-92.5 447.5t-36 537z" />
<glyph unicode="W" horiz-adv-x="1681" d="M137 1372h180q0 -264 19.5 -503.5t53.5 -421t80 -289t101 -107.5t91 107.5t58.5 289t32 421t9.5 503.5h178q0 -264 8.5 -503.5t32 -421t59 -289t90.5 -107.5t101.5 107.5t80.5 289t53 421t19 503.5h181q-2 -283 -36 -537.5t-92.5 -447t-137 -305.5t-169.5 -113 q-57 0 -102 48.5t-80 135.5t-59.5 207.5t-38.5 268.5q-16 -147 -40 -268t-57.5 -208t-78.5 -135.5t-103 -48.5q-90 0 -168.5 113t-137 305.5t-92.5 447.5t-36 537z" />
<glyph unicode="X" horiz-adv-x="1187" d="M193 0q2 274 74.5 461.5t189.5 265.5q-59 33 -100.5 95.5t-68 146.5t-38.5 186t-17 217h175q0 -123 4 -232.5t22.5 -190.5t57 -129t110.5 -48t111 47t57 128t22.5 190.5t4.5 234.5h170q-4 -115 -17.5 -217t-38 -186t-65.5 -146.5t-101 -95.5q115 -78 188 -265.5 t75 -461.5h-179q0 143 -11 269t-36.5 220.5t-68.5 148.5t-111 54t-112 -54t-69.5 -148.5t-36.5 -220.5t-11 -269h-180z" />
<glyph unicode="Y" horiz-adv-x="1007" d="M102 1372h174q0 -193 11.5 -367t37 -305t69.5 -208.5t112 -77.5t110.5 77.5t68.5 208.5t37 305.5t11 366.5h172q0 -217 -26.5 -395t-72.5 -311.5t-108.5 -215t-134.5 -106.5l31 -344h-180l32 344q-74 25 -136 106.5t-108 214t-73 311.5t-27 396z" />
<glyph unicode="Z" horiz-adv-x="917" d="M51 0v96q137 113 242.5 253t180.5 294t121 310.5t64 299.5l-583 17v102h790q-6 -190 -70.5 -375.5t-161.5 -349.5t-212 -300t-221 -228l639 -17v-102h-789z" />
<glyph unicode="[" horiz-adv-x="512" d="M166 -205v1729h285v-82h-183v-1565h183v-82h-285z" />
<glyph unicode="\" horiz-adv-x="491" d="M-100 1487l96 35l596 -1637l-96 -35z" />
<glyph unicode="]" horiz-adv-x="512" d="M61 -123h183v1565h-183v82h285v-1729h-285v82z" />
<glyph unicode="^" d="M174 717l307 573h103l307 -573h-103l-256 475l-256 -475h-102z" />
<glyph unicode="_" horiz-adv-x="894" d="M2 0zM2 2h896v-103h-896v103z" />
<glyph unicode="`" horiz-adv-x="567" d="M102 1333q0 29 22.5 61.5t51.5 32.5q18 0 39 -12q25 -14 67 -45t83 -64.5t70.5 -65.5t29.5 -48q0 -10 -10.5 -13t-16.5 -3q-23 0 -64.5 12t-86.5 29.5t-86 36t-62 30.5q-37 20 -37 49z" />
<glyph unicode="a" horiz-adv-x="890" d="M100 266q0 76 33 135.5t88 99.5t128 61.5t153 21.5q49 0 106 -11q-10 88 -27.5 166t-40 136.5t-49 92t-55.5 33.5q-39 0 -72.5 -75.5t-33.5 -198.5l-166 43q23 94 51.5 155.5t63 97.5t74.5 50t83 14q74 0 138.5 -66.5t112.5 -174t74.5 -243.5t26.5 -275 q0 -117 -27.5 -186.5t-75.5 -108.5t-112.5 -51.5t-136.5 -12.5t-133 11.5t-106 44t-71 91t-26 150.5zM266 266q0 -66 12.5 -107.5t35 -65t53 -32t69.5 -8.5t73 9.5t59.5 39t40 83t14.5 143.5q0 78 -7 155q-16 2 -30.5 3t-28.5 1q-59 0 -111.5 -12t-92.5 -38.5t-63.5 -68.5 t-23.5 -102z" />
<glyph unicode="b" horiz-adv-x="950" d="M143 328l21 1208h104l13 -696q35 109 87 175t128 66q74 0 138 -65.5t112.5 -172t75 -241.5t26.5 -274q0 -117 -27.5 -186.5t-76 -108.5t-113 -51.5t-135.5 -12.5q-72 0 -136.5 12.5t-112.5 51.5t-76 108.5t-28 186.5zM299 328q0 -90 16.5 -143.5t44 -83t62.5 -39t74 -9.5 t72.5 9.5t59 39t40 83t14.5 143.5q0 125 -14.5 245.5t-39 215t-59 151.5t-73.5 57q-41 0 -76 -57t-62.5 -151.5t-43 -215t-15.5 -245.5z" />
<glyph unicode="c" horiz-adv-x="870" d="M102 729q0 117 27 186.5t73 108.5t107.5 51t130.5 12q70 0 132.5 -12t110.5 -46t75.5 -96.5t27.5 -162.5l-165 -41q0 88 -14.5 142.5t-38 84t-55.5 39t-69 9.5t-68.5 -9.5t-55 -39t-38 -84t-14.5 -142.5q0 -125 13.5 -246t37 -216t55.5 -153.5t68 -58.5q35 0 65 71 t52 191l146 -26q-47 -147 -120 -234.5t-145 -87.5t-133 66.5t-107 174t-72 244t-26 275.5z" />
<glyph unicode="d" horiz-adv-x="950" d="M102 328q0 139 27 274t75 241.5t112.5 172t138.5 65.5q76 0 128 -66.5t87 -174.5l12 696h104q4 -303 8 -512t6.5 -344t3.5 -209t2 -108.5t1 -42v-9.5q0 -111 -28.5 -178t-77 -103t-113 -48.5t-133.5 -12.5q-72 0 -136.5 12.5t-112.5 51.5t-76 108.5t-28 186.5zM268 328 q0 -90 14.5 -143.5t40 -83t59.5 -39t73 -9.5t73.5 9.5t62 39t44 83t16.5 143.5q0 125 -15 245.5t-43 215t-63.5 151.5t-74.5 57q-41 0 -75 -57t-58.5 -151.5t-39 -215t-14.5 -245.5z" />
<glyph unicode="e" horiz-adv-x="966" d="M133 729q0 117 27.5 186.5t76 108.5t113 51t135.5 12q72 0 135.5 -14t110.5 -49t75 -91t28 -142q0 -61 -21.5 -120t-66 -106t-112 -75.5t-159.5 -28.5q-37 0 -78 5t-84 15q10 -88 27.5 -165.5t40 -135t49.5 -91.5t55 -34q37 0 69 71t56 191l146 -26q-47 -147 -122 -234.5 t-149 -87.5t-138 66.5t-112.5 174t-75 244t-26.5 275.5zM299 729q0 -84 6 -160q35 -6 65.5 -8t59.5 -2q72 0 119 17.5t73.5 48t37 73.5t10.5 93q0 117 -53.5 165t-131.5 48q-39 0 -72.5 -9.5t-59 -39t-40 -84t-14.5 -142.5z" />
<glyph unicode="f" horiz-adv-x="630" d="M102 958v99h164q8 113 26.5 206t48.5 160.5t72 105.5t99 38q29 0 61.5 -11.5t63.5 -38t53.5 -71.5t32.5 -115l-162 -49q-8 92 -30.5 135t-55.5 43q-25 0 -40 -29.5t-25.5 -84t-14.5 -128t-6 -161.5h217v-119l-217 8v-28.5v-51.5t1 -95t2 -161.5t3 -250t6 -359.5h-155 q2 211 4 359.5t4 250t2 163t1 97t2 52t1 30.5z" />
<glyph unicode="g" horiz-adv-x="946" d="M82 -152l166 13q2 -84 20.5 -134.5t49 -78t70.5 -36.5t85 -9q102 0 154.5 51t52.5 135q0 55 -34 88t-86 55.5t-111.5 40t-111.5 42t-86 60.5t-34 97q0 45 11.5 95t47.5 110q-72 78 -112.5 197.5t-40.5 246.5q0 82 26.5 133.5t73.5 79t108.5 37.5t133.5 10q27 78 55.5 127 t60 77t68.5 37t80 9q25 0 51.5 -8t50 -27.5t41 -51.5t23.5 -81l-166 -45q-2 53 -17.5 80t-39.5 27q-63 0 -117 -148q57 -4 107.5 -17t87 -42t57 -77t20.5 -120q0 -100 -26.5 -198.5t-74.5 -175t-112.5 -124t-138.5 -47.5q-72 0 -131 41q-10 -33 -14 -58.5t-4 -51.5 q0 -43 37.5 -69.5t95 -47t124 -40t124 -52.5t95.5 -82t38 -127q0 -133 -97.5 -201.5t-271.5 -68.5q-76 0 -144.5 11t-121.5 47t-86 100.5t-37 170.5zM289 813q0 -84 14 -166t39 -145.5t58.5 -102.5t74.5 -39q39 0 74 39t59.5 102.5t39 145.5t14.5 166q0 59 -14.5 96 t-40 56.5t-59.5 25.5t-73 6t-72.5 -6t-59.5 -25.5t-40 -56.5t-14 -96z" />
<glyph unicode="h" horiz-adv-x="950" d="M143 0l21 1536h104l8 -1067q14 133 37 245.5t54.5 193.5t72.5 127t95 46q70 0 127 -76.5t99 -207.5t65.5 -307.5t23.5 -374.5v-57.5t-2 -57.5h-166q2 47 2 91v89q0 168 -11 316.5t-30.5 259t-48.5 175t-64 64.5q-41 0 -77.5 -80.5t-66.5 -218t-50.5 -317.5t-26.5 -379 h-166z" />
<glyph unicode="i" horiz-adv-x="514" d="M164 1378q0 49 27.5 62.5t66.5 13.5t65.5 -13.5t26.5 -62.5q0 -33 -7 -65.5t-19.5 -58t-29 -41t-36.5 -15.5t-37.5 15.5t-30 41t-19.5 58.5t-7 65zM180 1057h160l-23 -1057h-114z" />
<glyph unicode="j" horiz-adv-x="514" d="M-139 -246l162 49q8 -92 30.5 -135t55.5 -43q27 0 43 37t25 102.5t13.5 155.5t4.5 195v32.5v54.5t-1 97t-3.5 160.5t-4.5 245t-6 352.5h160l-12 -760q-2 -164 -15.5 -306.5t-42 -246.5t-77 -164.5t-121.5 -60.5q-29 0 -62 11t-63.5 37.5t-54 72t-31.5 114.5zM164 1378 q0 49 27.5 62.5t66.5 13.5t65.5 -13.5t26.5 -62.5q0 -33 -7 -65.5t-19.5 -58t-29 -41t-36.5 -15.5t-37.5 15.5t-30 41t-19.5 58.5t-7 65z" />
<glyph unicode="k" horiz-adv-x="950" d="M162 0l26 1536h101l18 -920q76 14 132.5 59.5t93 109t55 135t18.5 137.5h160q0 -68 -17.5 -138.5t-54.5 -134t-95 -117t-138 -83.5q98 -29 166.5 -82t113.5 -128t65.5 -169t20.5 -205h-165q0 113 -26 207t-72 164.5t-110.5 113.5t-144.5 56l13 -541h-160z" />
<glyph unicode="l" horiz-adv-x="483" d="M162 1536h160l-23 -1536h-115z" />
<glyph unicode="m" horiz-adv-x="1386" d="M143 0l21 1057h74l38 -588q14 135 37 247.5t54.5 195.5t72.5 129t95 46q47 0 81.5 -37.5t58 -105t38 -162t20.5 -207.5q14 113 36 207.5t50.5 162t66.5 105t85 37.5q70 0 127 -77.5t99 -209.5t65.5 -309.5t23.5 -375.5v-57.5t-2 -57.5h-166q2 47 2 91v89q0 168 -11 317.5 t-30.5 262t-48 177t-63.5 64.5q-41 0 -71 -81.5t-52.5 -220t-36.5 -319.5t-21 -380h-145q6 160 6 311q0 145 -6 271.5t-20.5 219.5t-37 146t-53.5 53q-41 0 -77.5 -81.5t-66.5 -220t-50.5 -319.5t-26.5 -380h-166z" />
<glyph unicode="n" horiz-adv-x="950" d="M143 0l21 1057h74l38 -588q14 133 37 245.5t54.5 193.5t72.5 127t95 46q70 0 127 -76.5t99 -207.5t65.5 -307.5t23.5 -374.5v-57.5t-2 -57.5h-166q2 47 2 91v89q0 168 -11 316.5t-30.5 259t-48.5 175t-64 64.5q-41 0 -77.5 -80.5t-66.5 -218t-50.5 -317.5t-26.5 -379 h-166z" />
<glyph unicode="o" horiz-adv-x="909" d="M102 723q0 117 28 186.5t76 108.5t112.5 51t136.5 12t136 -12t112.5 -51t76 -108.5t27.5 -186.5q0 -139 -26.5 -274.5t-75 -242t-112.5 -172t-138 -65.5t-138.5 65.5t-112.5 172t-75 242t-27 274.5zM268 723q0 -125 14.5 -246t39 -215t58.5 -151.5t75 -57.5 q39 0 73.5 57.5t59 151.5t39 215t14.5 246q0 88 -14.5 142.5t-40 84t-59 38.5t-72.5 9t-73 -9t-59.5 -38.5t-40 -84t-14.5 -142.5z" />
<glyph unicode="p" horiz-adv-x="950" d="M143 731v8q0 111 29 178.5t77 103.5t111.5 48t135.5 12t136 -12t112.5 -51t76 -108.5t27.5 -186.5q0 -139 -26.5 -274.5t-75 -242t-113 -172t-137.5 -65.5q-76 0 -129.5 65.5t-87.5 176.5l-11 -662h-104q-6 295 -9 498t-5.5 334t-3.5 202.5t-2 106.5t-1 41zM299 723 q0 -125 15.5 -246t43 -215t62.5 -151.5t76 -57.5q39 0 73.5 57.5t59 151.5t39 215t14.5 246q0 88 -14.5 142.5t-40 84t-59 38.5t-72.5 9t-74 -9t-62.5 -38.5t-44 -84t-16.5 -142.5z" />
<glyph unicode="q" horiz-adv-x="950" d="M102 723q0 117 28 186.5t76 108.5t112.5 51t136.5 12t136 -12t112.5 -51t76 -108.5t27.5 -186.5l-21 -1174h-104l-12 662q-35 -111 -87.5 -176.5t-127.5 -65.5q-74 0 -138.5 65.5t-112.5 172t-75 242t-27 274.5zM268 723q0 -125 14.5 -246t39 -215t58.5 -151.5t75 -57.5 q39 0 74.5 57.5t63.5 151.5t43 215t15 246q0 88 -16.5 142.5t-44 84t-62 38.5t-73.5 9t-73 -9t-59.5 -38.5t-40 -84t-14.5 -142.5z" />
<glyph unicode="r" horiz-adv-x="749" d="M143 0l21 1057h74l28 -518q12 121 32.5 222t51.5 174t74 112.5t100 39.5q35 0 75 -14t74 -50t55.5 -97.5t21.5 -155.5l-166 -43q0 123 -24.5 198.5t-63.5 75.5q-41 0 -75 -81.5t-58.5 -220t-39 -319.5t-14.5 -380h-166z" />
<glyph unicode="s" horiz-adv-x="866" d="M98 299l166 12q2 -84 17.5 -134t40 -77.5t58.5 -37t71 -9.5q88 0 133 51.5t45 135.5q0 63 -35 102t-88 65.5t-113.5 50t-114 55.5t-88 81t-34.5 131q0 57 23.5 120.5t63.5 116t92 86t109 33.5q86 0 161 -85t112 -226l-166 -43q0 123 -34 198.5t-73 75.5q-29 0 -54 -25.5 t-43.5 -65.5t-30 -86t-11.5 -85q0 -61 36 -98t90 -63.5t116.5 -51t117 -59.5t90.5 -88t36 -139q0 -133 -90.5 -202t-249.5 -69q-70 0 -132.5 11.5t-110.5 47t-77 100.5t-33 171z" />
<glyph unicode="t" horiz-adv-x="722" d="M61 958v99h193l8 274h113l4 -274h227v-119l-225 8q2 -246 6 -413.5t13.5 -271t26.5 -149.5t48 -46q29 0 46.5 65.5t21.5 185.5l149 -26q-20 -147 -84.5 -234.5t-156.5 -87.5q-63 0 -104.5 23.5t-65 77t-32.5 139.5t-9 211v74v85t1 87t3 82l8 202z" />
<glyph unicode="u" horiz-adv-x="1007" d="M143 408q0 88 11.5 178t28 175t36 160.5t35.5 135.5h166q-59 -170 -100 -349.5t-41 -377.5q0 -78 17 -130.5t48 -85t72 -47t88 -14.5t88 14.5t71.5 47t48 85t17.5 130.5q0 199 -41 378t-100 349h166q16 -59 35.5 -135t36 -161t27.5 -175t11 -178t-18.5 -168t-60.5 -139.5 t-110.5 -95.5t-170.5 -36t-171 36t-111 95.5t-60.5 139t-18.5 168.5z" />
<glyph unicode="v" horiz-adv-x="909" d="M102 1057h166q0 -199 14.5 -379t39 -317.5t58.5 -218.5t75 -81q39 0 73.5 81t59 218.5t39 317.5t14.5 379h166q0 -217 -26.5 -414t-75 -345t-113 -235.5t-137.5 -87.5q-74 0 -138.5 87.5t-112.5 235.5t-75 345t-27 414z" />
<glyph unicode="w" horiz-adv-x="1345" d="M102 1057h166q0 -199 14.5 -380t39 -319.5t58.5 -220.5t75 -82q39 0 67.5 82t45 220.5t24.5 319.5t8 380h145q0 -199 8.5 -380t25 -319.5t44 -220.5t68.5 -82q39 0 73.5 82t59.5 220.5t39 319.5t14 380h166q0 -217 -26.5 -415t-74.5 -347.5t-112.5 -237.5t-138.5 -88 q-47 0 -84 37t-62.5 104.5t-44 162t-28.5 208.5q-10 -115 -27.5 -209t-44.5 -161.5t-62.5 -104.5t-82.5 -37q-74 0 -138.5 88t-112.5 237.5t-75 347.5t-27 415z" />
<glyph unicode="x" horiz-adv-x="950" d="M143 0q0 205 55.5 348.5t143.5 206.5q-98 55 -143 188.5t-49 313.5h151q0 -94 5 -177t23.5 -145.5t52.5 -98.5t93 -36q57 0 92 37t53.5 99.5t23.5 145.5t5 175h152q-4 -178 -49 -312.5t-146 -189.5q90 -63 145.5 -206.5t55.5 -348.5h-166q0 250 -34 387t-132 137 t-132 -137t-34 -387h-166z" />
<glyph unicode="y" horiz-adv-x="909" d="M102 1057h166q0 -199 14.5 -375t39 -308t58.5 -210t75 -78q53 0 90 57.5t59.5 157.5t31.5 237.5t9 297.5q0 53 -1 108t-3 113h166q0 -229 -26.5 -440t-71.5 -405t-104.5 -367t-123.5 -324l-135 61q68 119 124 241t99 243q-49 -66 -114 -66q-74 0 -138.5 84t-112.5 227.5 t-75 336t-27 409.5z" />
<glyph unicode="z" horiz-adv-x="856" d="M51 0v96q133 117 227.5 221.5t157 205t99 201.5t57.5 214l-496 16v103h688q-12 -156 -67 -292t-135 -254t-178.5 -216t-196.5 -176l571 -17v-102h-727z" />
<glyph unicode="{" horiz-adv-x="512" d="M6 618v82q88 0 131 32t43 81q0 37 -2 81t-5 89t-5 88t-2 76q0 123 20.5 196.5t57.5 113.5t89 53.5t118 13.5v-82q-37 0 -69 -9.5t-55.5 -39t-38 -84t-14.5 -142.5q0 -66 7.5 -143.5t7.5 -149.5q0 -168 -139 -215q68 -25 103.5 -77t35.5 -138q0 -72 -7.5 -149.5 t-7.5 -142.5q0 -90 14.5 -143.5t38 -83t55.5 -39t69 -9.5v-82q-66 0 -118 13.5t-89 53.5t-57.5 113.5t-20.5 196.5q0 33 2 76t5 88t5 89t2 81q0 49 -43 80.5t-131 31.5z" />
<glyph unicode="|" horiz-adv-x="716" d="M307 -205v1729h103v-1729h-103z" />
<glyph unicode="}" horiz-adv-x="512" d="M61 -123q37 0 69 9.5t55.5 39t38 82.5t14.5 144q0 66 -7.5 143.5t-7.5 148.5q0 86 36 138.5t103 76.5q-139 47 -139 215q0 72 7.5 150t7.5 143q0 88 -14.5 142.5t-38 84t-55.5 39t-69 9.5v82q63 0 116.5 -13.5t90.5 -53.5t57.5 -113.5t20.5 -196.5q0 -33 -2 -76t-5 -88 t-5 -89t-2 -81q0 -49 43 -81t131 -32v-82q-88 0 -131 -31.5t-43 -80.5q0 -37 2 -81t5 -89t5 -88t2 -76q0 -123 -20.5 -196.5t-57.5 -113.5t-90 -53.5t-117 -13.5v82z" />
<glyph unicode="~" d="M143 612v103q37 -31 82 -44.5t94 -13.5q51 0 101.5 16.5t100.5 37t101.5 37t106.5 16.5q104 0 193 -51v-103q-86 51 -187 52q-51 0 -100 -16.5t-100.5 -37t-103.5 -37t-109 -16.5q-49 0 -94.5 12.5t-84.5 44.5z" />
<glyph unicode="&#xa1;" horiz-adv-x="542" d="M170 1008q0 53 29.5 66t72.5 13t72 -13t29 -66q0 -37 -7.5 -73t-21.5 -63.5t-33 -44t-39 -16.5q-23 0 -41 16.5t-32.5 44t-21.5 63.5t-7 73zM176 -178q0 53 3 137t9.5 178t15.5 190.5t19 174.5t22.5 126t26.5 48t26.5 -48t23 -126t19.5 -174.5t15 -190.5t9.5 -178 t3.5 -137q0 -59 -5.5 -94t-16.5 -53.5t-29.5 -24.5t-45.5 -6q-29 0 -47 6t-28.5 24.5t-15.5 53t-5 94.5z" />
<glyph unicode="&#xa2;" horiz-adv-x="870" d="M133 872q0 100 20.5 164t57.5 101t87 52t108 19v246h88v-246q57 -4 108 -18t90 -48t60.5 -92.5t21.5 -146.5l-166 -39q0 82 -12 132.5t-33.5 78t-50.5 35.5t-59 8q-31 0 -58.5 -8t-49 -34.5t-34 -75t-12.5 -128.5q0 -115 12.5 -224t33 -195t48 -139.5t60.5 -53.5 q27 0 51 65.5t47 174.5l151 -23q-39 -121 -95 -199.5t-113 -101.5v-258h-88v258q-59 20 -109.5 87t-86.5 162t-56.5 212t-20.5 235z" />
<glyph unicode="&#xa3;" d="M129 0v78q86 100 118 188t32 172q0 43 -7.5 85t-17.5 83h-104v88h79q-23 74 -41 149t-18 158q0 147 94 233.5t279 86.5q76 0 143.5 -12.5t118.5 -43t80.5 -79.5t29.5 -123q0 -61 -22 -129l-154 20q10 57 11 109q0 96 -60.5 132t-146.5 36q-59 0 -98 -17.5t-64 -48 t-35 -72.5t-10 -92q0 -78 13 -153.5t30 -153.5h362v-88h-348q4 -35 8.5 -69.5t4.5 -69.5q0 -96 -32 -189.5t-122 -189.5l641 57v-145h-764z" />
<glyph unicode="&#xa4;" d="M47 266l172 172q-63 98 -63 242q0 139 63 242l-172 172l72 71l164 -166q109 98 249 99q70 0 134.5 -24.5t115.5 -72.5l164 164l72 -71l-170 -170q29 -49 46 -110.5t17 -133.5t-17 -133.5t-48 -110.5l172 -170l-72 -71l-164 163q-106 -96 -250 -96q-72 0 -135 24.5 t-114 71.5l-164 -163zM313 754q0 -53 11.5 -124t39 -134.5t73.5 -106.5t114 -43q100 0 152.5 71.5t52.5 190.5q0 94 -19.5 169t-52.5 127t-77 81t-93 29q-100 0 -150.5 -71.5t-50.5 -188.5z" />
<glyph unicode="&#xa5;" d="M84 340v88h287q-63 68 -115 178h-172v88h137q-39 113 -61.5 261.5t-22.5 334.5h164q0 -190 15.5 -348t45 -272.5t71.5 -178t97 -63.5q53 0 95.5 63.5t72 178t45 272.5t15.5 348h164q-2 -186 -25 -334.5t-61 -261.5h143v-88h-178q-49 -115 -113 -178h291v-88h-387l26 -340 h-180l29 340h-383z" />
<glyph unicode="&#xa6;" horiz-adv-x="716" d="M307 -205v594h103v-594h-103zM307 909v594h103v-594h-103z" />
<glyph unicode="&#xa7;" horiz-adv-x="1093" d="M123 528q0 86 38 150.5t99 107.5q-31 33 -48 74t-17 96q0 76 28.5 155t77.5 143.5t112.5 106.5t133.5 42q49 0 97 -27.5t91 -77t79 -118t60 -150.5l-174 -51q-2 82 -16 145.5t-35.5 107.5t-48.5 66.5t-53 22.5q-41 0 -76 -33t-61.5 -84t-42 -112.5t-15.5 -116.5 q0 -68 46 -111t115 -73.5t148.5 -59.5t148.5 -71t115 -104.5t46 -162.5q0 -86 -38 -151.5t-99 -108.5q29 -33 47 -74t18 -94q0 -76 -28.5 -154.5t-78 -143t-113 -106.5t-132.5 -42q-49 0 -97.5 27.5t-91.5 76.5t-78.5 118t-60.5 150l174 52q2 -82 16.5 -145.5t36 -107.5 t48 -66.5t53.5 -22.5q39 0 74.5 32.5t62.5 84t42 112.5t15 117q0 68 -46 110.5t-114.5 73.5t-148.5 59.5t-148.5 70.5t-114.5 104.5t-46 162.5zM293 541q0 -78 45 -127t112.5 -83t146.5 -62.5t146 -67.5q29 35 43.5 81t14.5 99q0 78 -45 126t-113 82t-146.5 62.5 t-146.5 67.5q-29 -33 -43 -79t-14 -99z" />
<glyph unicode="&#xa8;" horiz-adv-x="694" d="M102 1376q0 47 27 59.5t64 12.5t62.5 -12.5t25.5 -59.5q0 -31 -6.5 -61.5t-18.5 -55t-28.5 -40t-34.5 -15.5t-35 15.5t-29 40t-19.5 55.5t-7.5 61zM414 1376q0 47 26.5 59.5t63.5 12.5t62.5 -12.5t25.5 -59.5q0 -31 -6 -61.5t-18.5 -55t-29 -40t-34.5 -15.5t-34.5 15.5 t-29 40t-19.5 55.5t-7 61z" />
<glyph unicode="&#xa9;" horiz-adv-x="1710" d="M164 1180q0 125 53 201.5t145.5 117.5t217.5 54.5t266 13.5q143 0 270 -13.5t222.5 -54.5t151.5 -117.5t56 -201.5q0 -168 -54 -331t-149.5 -292t-223.5 -208t-273 -79t-270 79t-216.5 208t-143.5 292t-52 331zM309 1176q0 -154 41 -303.5t113 -268.5t170 -191.5 t213 -72.5q117 0 217 72.5t176 191.5t119 268.5t43 303.5q0 104 -44 167.5t-120 97.5t-177.5 45t-213.5 11q-111 0 -209 -11t-171 -45t-115 -97.5t-42 -167.5zM569 1083q0 94 21.5 151.5t58.5 88.5t87 41t108 10q57 0 107 -10t88 -39t60.5 -80t22.5 -135l-143 -35 q0 72 -10.5 115t-28.5 66.5t-43 30.5t-51 7q-27 0 -51.5 -7t-43 -29.5t-28.5 -64.5t-10 -110q0 -98 10 -193t27.5 -169t42 -120t53.5 -46q23 0 44 56.5t40 150.5l131 -21q-41 -123 -100.5 -194.5t-116.5 -71.5q-59 0 -109.5 53.5t-87.5 139.5t-57.5 194.5t-20.5 220.5z" />
<glyph unicode="&#xaa;" horiz-adv-x="657" d="M115 983q0 45 20.5 82t54 61.5t77.5 38t93 13.5q12 0 29 -1t29 -3q-12 100 -38 169.5t-58 69.5q-23 0 -39.5 -45t-16.5 -119l-114 29q29 119 73 159t97 40q45 0 84.5 -40t68.5 -104.5t45.5 -146.5t16.5 -166q0 -72 -17.5 -115t-46.5 -66.5t-67.5 -30.5t-83.5 -7t-83 7 t-66 26.5t-43 55.5t-15 93zM227 983q0 -74 27 -96.5t68 -22.5q20 0 39.5 5t34 21.5t22.5 47.5t8 82v43t-2 43q-14 0 -20.5 1t-10.5 1q-66 0 -116 -27.5t-50 -97.5z" />
<glyph unicode="&#xab;" horiz-adv-x="1003" d="M164 633q0 35 18.5 87t56 106.5t95 106.5t137.5 87l21 -55q-90 -111 -129 -202t-39 -130q0 -41 38.5 -131t129.5 -201l-21 -55q-80 35 -137.5 87t-95 106.5t-56 106.5t-18.5 87zM512 633q0 35 18.5 87t56.5 106.5t95 106.5t137 87l21 -55q-90 -111 -129 -202t-39 -130 q0 -41 39 -131t129 -201l-21 -55q-80 35 -137 87t-95 106.5t-56.5 106.5t-18.5 87z" />
<glyph unicode="&#xac;" d="M143 608v103h781v-379h-99v276h-682z" />
<glyph unicode="&#xad;" horiz-adv-x="796" d="M102 588v108h592v-137z" />
<glyph unicode="&#xae;" horiz-adv-x="1710" d="M164 1180q0 125 53 201.5t145.5 117.5t217.5 54.5t266 13.5q143 0 270 -13.5t222.5 -54.5t151.5 -117.5t56 -201.5q0 -168 -54 -331t-149.5 -292t-223.5 -208t-273 -79t-270 79t-216.5 208t-143.5 292t-52 331zM309 1176q0 -154 41 -303.5t113 -268.5t170 -191.5 t213 -72.5q117 0 217 72.5t176 191.5t119 268.5t43 303.5q0 104 -44 167.5t-120 97.5t-177.5 45t-213.5 11q-111 0 -209 -11t-171 -45t-115 -97.5t-42 -167.5zM643 1354q41 10 86 14t86 4q154 0 240 -67.5t86 -196.5q0 -92 -50.5 -164t-140.5 -135q61 -37 102.5 -121 t41.5 -207h-136q0 133 -18 194.5t-68 80.5q-23 -12 -48 -25.5t-56 -25.5l-6 -224h-98zM768 788q96 53 163.5 134.5t67.5 185.5q0 92 -44 139t-142 47h-31z" />
<glyph unicode="&#xaf;" horiz-adv-x="684" d="M98 1311q0 25 7.5 44t17.5 19h438q10 0 17.5 -19.5t7.5 -43.5q0 -25 -7.5 -44.5t-17.5 -19.5h-438q-10 0 -17.5 19.5t-7.5 44.5z" />
<glyph unicode="&#xb0;" horiz-adv-x="675" d="M123 1153q0 53 17.5 86t46 51.5t68.5 24.5t83 6q45 0 84 -6t68.5 -24.5t46 -51.5t16.5 -86q0 -66 -16.5 -128t-45 -112.5t-68.5 -81t-85 -30.5t-84 30.5t-68.5 81t-46 112.5t-16.5 128zM236 1147q0 -53 8 -103.5t21.5 -90.5t31.5 -64.5t41 -24.5t42 24.5t33.5 64.5 t22.5 90.5t8 103.5q0 72 -31.5 92.5t-74.5 20.5q-41 0 -71.5 -20.5t-30.5 -92.5z" />
<glyph unicode="&#xb1;" d="M143 2v103h779v-103h-779zM143 2zM143 608v103h338v338h103v-338h338v-103h-338v-338h-103v338h-338z" />
<glyph unicode="&#xb2;" horiz-adv-x="761" d="M127 675v74q74 47 139.5 111.5t115.5 135.5t80 143.5t30 138.5q0 53 -25 89.5t-86 36.5q-47 0 -80 -19t-33 -73q0 -14 2 -31.5t6 -37.5l-112 -17q-16 45 -17 86q0 47 18.5 79t50.5 50.5t75 26.5t90 8q113 0 171 -53t58 -145q0 -57 -24.5 -123t-68.5 -133.5t-106.5 -133 t-136.5 -122.5q80 -2 162 -5.5t162 -5.5v-80h-471zM127 676z" />
<glyph unicode="&#xb3;" horiz-adv-x="761" d="M131 657zM131 833q0 43 12 80l113 -16q-8 -33 -8 -64q0 -55 39 -75.5t92 -20.5q27 0 50.5 5t40.5 19.5t27.5 40t10.5 66.5t-26.5 90t-102.5 78q-29 -6 -60.5 -10t-74.5 -4v67q92 0 144 24.5t78 59.5t31 73t5 64q0 51 -33 70.5t-80 19.5t-85 -19.5t-38 -70.5 q0 -16 2 -33.5t4 -35.5l-108 -17q-12 43 -12 86q0 47 19 78t53 49.5t76 26.5t89 8t89 -8t73 -26.5t49 -49.5t18 -78q0 -66 -34.5 -130t-106.5 -107q41 -16 69.5 -42t46 -53.5t25 -56.5t7.5 -53q0 -61 -19.5 -102t-53.5 -65t-79 -34t-94 -10q-51 0 -96 9t-79 30.5t-53.5 54.5 t-19.5 82z" />
<glyph unicode="&#xb4;" horiz-adv-x="909" d="M336 1192q0 16 29.5 48t70.5 65.5t83 64.5t67 45q20 12 39 12q29 0 51 -32.5t22 -61.5t-36 -49q-20 -12 -61.5 -30.5t-86.5 -36t-87 -29.5t-65 -12q-6 0 -16 3t-10 13z" />
<glyph unicode="&#xb5;" horiz-adv-x="909" d="M82 -451l20 1508h166q0 -199 14.5 -379t39 -317.5t58.5 -218.5t75 -81q39 0 73.5 81t59 218.5t39 317.5t14.5 379h164l-21 -1057h-73l-23 379h-8q-16 -92 -37.5 -166t-49.5 -127t-61.5 -82t-76.5 -29t-80 31t-68 88.5t-54.5 136t-41.5 177.5h-10l37 -859h-156z" />
<glyph unicode="&#xb6;" horiz-adv-x="966" d="M164 1026q0 90 31.5 159.5t89 118t136.5 74t175 25.5q86 0 207 -31l-49 -1577h-115v744q-231 66 -353 187.5t-122 299.5z" />
<glyph unicode="&#xb7;" horiz-adv-x="419" d="M102 688q0 57 32 71.5t77 14.5t75.5 -14.5t30.5 -71.5q0 -39 -8 -76t-22.5 -66.5t-33.5 -47t-42 -17.5t-43.5 17.5t-34.5 47t-22.5 66.5t-8.5 76z" />
<glyph unicode="&#xb8;" horiz-adv-x="667" d="M102 -317q0 41 17 86l112 -17q-4 -20 -6 -37.5t-2 -31.5q0 -53 33 -73t80 -20q61 0 85.5 37t24.5 90q0 76 -38.5 150t-104.5 143l74 37q88 -84 138 -164t50 -166q0 -92 -58 -145t-171 -53q-47 0 -90 8t-75 26.5t-50.5 50t-18.5 79.5z" />
<glyph unicode="&#xb9;" horiz-adv-x="761" d="M113 676zM113 1339l254 125h82v-701l161 7v-95h-448v78l162 6q8 158 17 306.5t17 306.5q-51 -29 -104 -58.5t-102 -58.5z" />
<glyph unicode="&#xba;" horiz-adv-x="667" d="M117 1255q0 70 17.5 113t46 65.5t68.5 31t83 8.5q45 0 84 -8.5t68.5 -31t46 -65.5t16.5 -113q0 -84 -16.5 -164.5t-45 -145t-68.5 -104.5t-85 -40t-84 40t-68.5 104.5t-46 145t-16.5 164.5zM229 1255q0 -74 8.5 -144.5t21.5 -124.5t31.5 -88t41.5 -34t42 34t33.5 88 t22.5 125t8 144q0 49 -8 80t-23.5 48.5t-35 22.5t-39.5 5t-39 -5t-33 -22.5t-22.5 -48t-8.5 -80.5z" />
<glyph unicode="&#xbb;" horiz-adv-x="1003" d="M164 301q90 111 129 201t39 131q0 39 -39 130t-129 202l20 55q80 -35 137.5 -87t95.5 -106.5t56.5 -106.5t18.5 -87t-18.5 -87t-56.5 -106.5t-95.5 -106.5t-137.5 -87zM512 301q90 111 129 201t39 131q0 39 -39 130t-129 202l20 55q80 -35 137.5 -87t95.5 -106.5 t56.5 -106.5t18.5 -87t-18.5 -87t-56.5 -106.5t-95.5 -106.5t-137.5 -87z" />
<glyph unicode="&#xbc;" horiz-adv-x="1724" d="M125 0zM125 1184l254 125h82v-701l161 7v-95h-448v78l162 6q8 158 17 306.5t17 306.5q-51 -29 -104 -58.5t-102 -58.5zM598 -70l434 1456l94 -26l-434 -1456zM1081 363q0 57 16.5 112.5t44 108.5t64.5 102.5t76 96.5h71q-61 -98 -104 -199.5t-43 -181.5q0 -92 31.5 -137 t111.5 -45h60l26 426h88v-426h84v-68h-84v-152h-127l11 152h-58q-47 0 -95 7t-87 30.5t-62.5 64.5t-23.5 109z" />
<glyph unicode="&#xbd;" horiz-adv-x="1724" d="M125 0zM125 1184l254 125h82v-701l161 7v-95h-448v78l162 6q8 158 17 306.5t17 306.5q-51 -29 -104 -58.5t-102 -58.5zM598 -70l434 1456l94 -26l-434 -1456zM1081 0v74q74 47 139.5 111.5t115.5 135.5t80 143.5t30 138.5q0 53 -25 89.5t-86 36.5q-47 0 -80 -19t-33 -73 q0 -14 2 -31.5t6 -37.5l-112 -17q-16 45 -17 86q0 47 18.5 79t50.5 50.5t75 26.5t90 8q113 0 171 -53t58 -145q0 -57 -24.5 -123t-68.5 -133.5t-106.5 -133t-136.5 -122.5q80 -2 162 -5.5t162 -5.5v-80h-471z" />
<glyph unicode="&#xbe;" horiz-adv-x="1724" d="M143 0zM143 678q0 43 12 80l113 -16q-8 -33 -8 -64q0 -55 39 -75.5t92 -20.5q27 0 50.5 5t40.5 19.5t27.5 40t10.5 66.5t-26.5 90t-102.5 78q-29 -6 -60.5 -10t-74.5 -4v67q92 0 144 24.5t78 59.5t31 73t5 64q0 51 -33 70.5t-80 19.5t-85 -19.5t-38 -70.5q0 -16 2 -33.5 t4 -35.5l-108 -17q-12 43 -12 86q0 47 19 78t53 49.5t76 26.5t89 8t89 -8t73 -26.5t49 -49.5t18 -78q0 -66 -34.5 -130t-106.5 -107q41 -16 69.5 -42t46 -53.5t25 -56.5t7.5 -53q0 -61 -19.5 -102t-53.5 -65t-79 -34t-94 -10q-51 0 -96 9t-79 30.5t-53.5 54.5t-19.5 82z M598 -70l434 1456l94 -26l-434 -1456zM1081 363q0 57 16.5 112.5t44 108.5t64.5 102.5t76 96.5h71q-61 -98 -104 -199.5t-43 -181.5q0 -92 31.5 -137t111.5 -45h60l26 426h88v-426h84v-68h-84v-152h-127l11 152h-58q-47 0 -95 7t-87 30.5t-62.5 64.5t-23.5 109z" />
<glyph unicode="&#xbf;" horiz-adv-x="944" d="M82 -37q0 164 107.5 349.5t299.5 377.5l60 -57q-63 -78 -117.5 -164t-93.5 -172t-61.5 -171t-22.5 -163q0 -49 11 -91t36 -72.5t63.5 -48t96.5 -17.5q113 0 157 54t44 134q0 53 -15.5 111.5t-40.5 116.5l144 47q61 -135 61 -244q0 -74 -26.5 -131.5t-73.5 -97t-113 -60 t-143 -20.5q-184 0 -278.5 86t-94.5 233zM373 1008q0 53 29.5 66t72.5 13t71.5 -13t28.5 -66q0 -37 -7 -73t-21.5 -63.5t-33 -44t-38.5 -16.5q-23 0 -41 16.5t-32.5 44t-21.5 63.5t-7 73z" />
<glyph unicode="&#xc0;" horiz-adv-x="1114" d="M123 0q2 283 36 538t92 447.5t137 305t169 112.5q92 0 170 -112.5t136.5 -305t92 -447.5t35.5 -538h-178q0 86 -2 167t-6 161h-494q-4 -80 -6 -161t-2 -167h-180zM123 0zM317 420h482q-12 193 -36 357.5t-55.5 285.5t-69.5 189.5t-81 68.5t-82 -68.5t-69.5 -189.5 t-53 -286t-35.5 -357zM374 1640q0 29 22.5 62t51.5 33q18 0 39 -13q25 -14 67 -44.5t83 -64.5t70.5 -65.5t29.5 -48.5q0 -10 -10.5 -13t-16.5 -3q-23 0 -64.5 12t-86.5 29.5t-86 36t-62 30.5q-37 20 -37 49z" />
<glyph unicode="&#xc1;" horiz-adv-x="1114" d="M123 0q2 283 36 538t92 447.5t137 305t169 112.5q92 0 170 -112.5t136.5 -305t92 -447.5t35.5 -538h-178q0 86 -2 167t-6 161h-494q-4 -80 -6 -161t-2 -167h-180zM123 0zM317 420h482q-12 193 -36 357.5t-55.5 285.5t-69.5 189.5t-81 68.5t-82 -68.5t-69.5 -189.5 t-53 -286t-35.5 -357zM416 1499q0 16 29.5 48t70.5 66t83 64.5t67 44.5q20 12 39 13q29 0 51 -33t22 -62t-37 -49q-20 -12 -61 -30.5t-86 -36t-87 -29.5t-65 -12q-6 0 -16 3t-10 13z" />
<glyph unicode="&#xc2;" horiz-adv-x="1114" d="M123 0q2 283 36 538t92 447.5t137 305t169 112.5q92 0 170 -112.5t136.5 -305t92 -447.5t35.5 -538h-178q0 86 -2 167t-6 161h-494q-4 -80 -6 -161t-2 -167h-180zM123 0zM317 420h482q-12 193 -36 357.5t-55.5 285.5t-69.5 189.5t-81 68.5t-82 -68.5t-69.5 -189.5 t-53 -286t-35.5 -357zM317 1499q0 16 26 51t59.5 73t68.5 72t53 48q18 12 33 12q10 0 33 -12q18 -14 53 -48t68.5 -72t59.5 -72.5t26 -51.5q0 -10 -10.5 -13t-16.5 -3q-16 0 -43 11t-56.5 27.5t-60 35t-53.5 34.5q-23 -16 -53.5 -34.5t-60 -35t-56.5 -27.5t-43 -11 q-6 0 -16.5 3t-10.5 13z" />
<glyph unicode="&#xc3;" horiz-adv-x="1114" d="M123 0q2 283 36 538t92 447.5t137 305t169 112.5q92 0 170 -112.5t136.5 -305t92 -447.5t35.5 -538h-178q0 86 -2 167t-6 161h-494q-4 -80 -6 -161t-2 -167h-180zM123 0zM284 1534q6 66 21.5 109t35 67.5t45 34.5t54.5 10q37 0 65.5 -18.5t52 -42t46 -42t49.5 -18.5 q10 0 20.5 3t18.5 15.5t13 37t5 65.5l119 -33q-6 -66 -21.5 -108.5t-35 -67t-44.5 -35t-54 -10.5q-33 0 -63 18.5t-56.5 42t-50 42t-43.5 18.5q-10 0 -20.5 -3t-19 -15.5t-13.5 -37t-5 -65.5zM317 420h482q-12 193 -36 357.5t-55.5 285.5t-69.5 189.5t-81 68.5t-82 -68.5 t-69.5 -189.5t-53 -286t-35.5 -357z" />
<glyph unicode="&#xc4;" horiz-adv-x="1114" d="M123 0q2 283 36 538t92 447.5t137 305t169 112.5q92 0 170 -112.5t136.5 -305t92 -447.5t35.5 -538h-178q0 86 -2 167t-6 161h-494q-4 -80 -6 -161t-2 -167h-180zM123 0zM311 1683q0 47 27 59.5t64 12.5t62.5 -12t25.5 -60q0 -31 -6.5 -61.5t-18.5 -55t-28.5 -40 t-34.5 -15.5t-35 15.5t-29 40t-19.5 55.5t-7.5 61zM317 420h482q-12 193 -36 357.5t-55.5 285.5t-69.5 189.5t-81 68.5t-82 -68.5t-69.5 -189.5t-53 -286t-35.5 -357zM623 1683q0 47 26.5 59.5t63.5 12.5t62.5 -12t25.5 -60q0 -31 -6 -61.5t-18.5 -55t-29 -40t-34.5 -15.5 t-34.5 15.5t-29 40t-19.5 55.5t-7 61z" />
<glyph unicode="&#xc5;" horiz-adv-x="1114" d="M123 0q2 283 36 538t92 447.5t137 305t169 112.5q92 0 170 -112.5t136.5 -305t92 -447.5t35.5 -538h-178q0 86 -2 167t-6 161h-494q-4 -80 -6 -161t-2 -167h-180zM123 0zM317 420h482q-12 193 -36 357.5t-55.5 285.5t-69.5 189.5t-81 68.5t-82 -68.5t-69.5 -189.5 t-53 -286t-35.5 -357zM393 1692q0 59 49 75.5t117 16.5t115 -16.5t47 -75.5q0 -41 -12.5 -80t-34 -70t-51 -49t-64.5 -18t-64.5 18t-52 49t-36 70t-13.5 80zM493 1657q0 -31 18.5 -66t47.5 -35q27 0 44 35t17 66q0 25 -17 35t-44 10q-29 0 -47.5 -10.5t-18.5 -34.5z" />
<glyph unicode="&#xc6;" horiz-adv-x="1622" d="M143 0q4 406 48.5 675t113 431t153.5 229.5t171 67.5q53 0 106 -22.5t94 -63.5q57 53 134 69.5t165 16.5q80 0 151 -13.5t126 -53.5t90 -113.5t45 -196.5l-176 -49q-2 113 -21.5 181.5t-51 104t-73.5 47t-90 11.5q-47 0 -90 -12.5t-74.5 -51t-50 -112.5t-18.5 -199 q0 -84 3 -164t13 -157h400v-93h-387q14 -102 34.5 -190t47 -152.5t57.5 -101.5t65 -37q57 0 103.5 93.5t79.5 240.5l141 -29q-29 -86 -63.5 -156.5t-76.5 -121.5t-88 -80t-96 -29q-61 0 -117.5 43t-103.5 119t-86 179.5t-63 221.5h-416q-8 -129 -11 -263t-7 -269h-181z M350 625h391q-12 78 -19 157.5t-7 163.5q0 111 17.5 187.5t51.5 128.5q-85 59 -157 59q-68 0 -115 -53.5t-79 -147.5t-51.5 -221t-31.5 -274z" />
<glyph unicode="&#xc7;" horiz-adv-x="1030" d="M123 0zM123 946q0 150 32.5 240t89 138t132.5 63.5t160 15.5q80 0 150.5 -13.5t125.5 -53.5t90 -113.5t45 -196.5l-176 -49q-2 113 -21.5 181.5t-51 104t-73.5 47t-89 11.5t-90.5 -12.5t-75 -51t-50 -112.5t-18.5 -199q0 -170 17.5 -330.5t49 -286.5t74.5 -202t93 -76 q57 0 103 93.5t79 240.5l141 -29q-29 -86 -63.5 -156.5t-76.5 -121.5t-88 -80t-95 -29q-86 0 -162 84t-131.5 221.5t-88 312.5t-32.5 359zM219 -317q0 41 17 86l112 -17q-4 -20 -6 -37.5t-2 -31.5q0 -53 33 -73t80 -20q61 0 85.5 37t24.5 90q0 76 -38.5 150t-104.5 143 l74 37q88 -84 138 -164t50 -166q0 -92 -58 -145t-171 -53q-47 0 -90 8t-75 26.5t-50.5 50t-18.5 79.5z" />
<glyph unicode="&#xc8;" horiz-adv-x="1030" d="M123 0zM123 946q0 150 32.5 240t89 138t132.5 63.5t160 15.5q80 0 150.5 -13.5t125.5 -53.5t90 -113.5t45 -196.5l-176 -49q-2 113 -21.5 181.5t-51 104t-73.5 47t-89 11.5t-90.5 -12.5t-75 -51t-50 -112.5t-18.5 -199q0 -84 3 -164t13 -157h400v-93h-387 q14 -102 34.5 -190t47 -152.5t57.5 -101.5t66 -37q57 0 103 93.5t79 240.5l141 -29q-29 -86 -63.5 -156.5t-76.5 -121.5t-88 -80t-95 -29q-86 0 -162 84t-131.5 221.5t-88 312.5t-32.5 359zM333 1640q0 29 22.5 62t51.5 33q18 0 39 -13q25 -14 67 -44.5t83 -64.5t70.5 -65.5 t29.5 -48.5q0 -10 -10.5 -13t-16.5 -3q-23 0 -64.5 12t-86.5 29.5t-86 36t-62 30.5q-37 20 -37 49z" />
<glyph unicode="&#xc9;" horiz-adv-x="1030" d="M123 0zM123 946q0 150 32.5 240t89 138t132.5 63.5t160 15.5q80 0 150.5 -13.5t125.5 -53.5t90 -113.5t45 -196.5l-176 -49q-2 113 -21.5 181.5t-51 104t-73.5 47t-89 11.5t-90.5 -12.5t-75 -51t-50 -112.5t-18.5 -199q0 -84 3 -164t13 -157h400v-93h-387 q14 -102 34.5 -190t47 -152.5t57.5 -101.5t66 -37q57 0 103 93.5t79 240.5l141 -29q-29 -86 -63.5 -156.5t-76.5 -121.5t-88 -80t-95 -29q-86 0 -162 84t-131.5 221.5t-88 312.5t-32.5 359zM377 1499q0 16 29.5 48t70.5 66t83 64.5t67 44.5q20 12 39 13q29 0 51 -33t22 -62 t-37 -49q-20 -12 -61 -30.5t-86 -36t-87 -29.5t-65 -12q-6 0 -16 3t-10 13z" />
<glyph unicode="&#xca;" horiz-adv-x="1030" d="M123 0zM123 946q0 150 32.5 240t89 138t132.5 63.5t160 15.5q80 0 150.5 -13.5t125.5 -53.5t90 -113.5t45 -196.5l-176 -49q-2 113 -21.5 181.5t-51 104t-73.5 47t-89 11.5t-90.5 -12.5t-75 -51t-50 -112.5t-18.5 -199q0 -84 3 -164t13 -157h400v-93h-387 q14 -102 34.5 -190t47 -152.5t57.5 -101.5t66 -37q57 0 103 93.5t79 240.5l141 -29q-29 -86 -63.5 -156.5t-76.5 -121.5t-88 -80t-95 -29q-86 0 -162 84t-131.5 221.5t-88 312.5t-32.5 359zM274 1499q0 16 26 51t59.5 73t68.5 72t53 48q18 12 33 12q10 0 33 -12 q18 -14 53 -48t68.5 -72t59.5 -72.5t26 -51.5q0 -10 -10.5 -13t-16.5 -3q-16 0 -43 11t-56.5 27.5t-60 35t-53.5 34.5q-23 -16 -53.5 -34.5t-60 -35t-56.5 -27.5t-43 -11q-6 0 -16.5 3t-10.5 13z" />
<glyph unicode="&#xcb;" horiz-adv-x="1030" d="M123 0zM123 946q0 150 32.5 240t89 138t132.5 63.5t160 15.5q80 0 150.5 -13.5t125.5 -53.5t90 -113.5t45 -196.5l-176 -49q-2 113 -21.5 181.5t-51 104t-73.5 47t-89 11.5t-90.5 -12.5t-75 -51t-50 -112.5t-18.5 -199q0 -84 3 -164t13 -157h400v-93h-387 q14 -102 34.5 -190t47 -152.5t57.5 -101.5t66 -37q57 0 103 93.5t79 240.5l141 -29q-29 -86 -63.5 -156.5t-76.5 -121.5t-88 -80t-95 -29q-86 0 -162 84t-131.5 221.5t-88 312.5t-32.5 359zM270 1683q0 47 27 59.5t64 12.5t62.5 -12t25.5 -60q0 -31 -6.5 -61.5t-18.5 -55 t-28.5 -40t-34.5 -15.5t-35 15.5t-29 40t-19.5 55.5t-7.5 61zM582 1683q0 47 26.5 59.5t63.5 12.5t62.5 -12t25.5 -60q0 -31 -6 -61.5t-18.5 -55t-29 -40t-34.5 -15.5t-34.5 15.5t-29 40t-19.5 55.5t-7 61z" />
<glyph unicode="&#xcc;" horiz-adv-x="507" d="M75 1640q0 29 22.5 62t51.5 33q18 0 39 -13q25 -14 67 -44.5t83 -64.5t70.5 -65.5t29.5 -48.5q0 -10 -10.5 -13t-16.5 -3q-23 0 -64.5 12t-86.5 29.5t-86 36t-62 30.5q-37 20 -37 49zM76 0zM164 0l35 1372h114l31 -1372h-180z" />
<glyph unicode="&#xcd;" horiz-adv-x="507" d="M117 0zM117 1499q0 16 29.5 48t70.5 66t83 64.5t67 44.5q20 12 39 13q29 0 51 -33t22 -62t-37 -49q-20 -12 -61 -30.5t-86 -36t-87 -29.5t-65 -12q-6 0 -16 3t-10 13zM164 0l35 1372h114l31 -1372h-180z" />
<glyph unicode="&#xce;" horiz-adv-x="507" d="M16 0zM16 1499q0 16 26 51t59.5 73t68.5 72t53 48q18 12 33 12q10 0 33 -12q18 -14 53 -48t68.5 -72t59.5 -72.5t26 -51.5q0 -10 -10.5 -13t-16.5 -3q-16 0 -43 11t-56.5 27.5t-60 35t-53.5 34.5q-23 -16 -53.5 -34.5t-60 -35t-56.5 -27.5t-43 -11q-6 0 -16.5 3t-10.5 13 zM164 0l35 1372h114l31 -1372h-180z" />
<glyph unicode="&#xcf;" horiz-adv-x="507" d="M12 0zM12 1683q0 47 27 59.5t64 12.5t62.5 -12t25.5 -60q0 -31 -6.5 -61.5t-18.5 -55t-28.5 -40t-34.5 -15.5t-35 15.5t-29 40t-19.5 55.5t-7.5 61zM164 0l35 1372h114l31 -1372h-180zM324 1683q0 47 26.5 59.5t63.5 12.5t62.5 -12t25.5 -60q0 -31 -6 -61.5t-18.5 -55 t-29 -40t-34.5 -15.5t-34.5 15.5t-29 40t-19.5 55.5t-7 61z" />
<glyph unicode="&#xd0;" horiz-adv-x="1058" d="M55 0zM55 660v92h550v-92h-550zM164 1372q156 31 287 31q248 0 376.5 -103.5t128.5 -300.5q0 -115 -35.5 -249t-113.5 -268t-200 -260t-294 -222h-114zM315 104q123 78 210 185.5t142.5 228.5t82 245t26.5 234q0 154 -78.5 236t-248.5 82q-25 0 -51.5 -2t-55.5 -6z" />
<glyph unicode="&#xd1;" horiz-adv-x="1179" d="M164 0l35 1372h114l15 -665q41 154 83 281.5t89 219.5t100 143.5t119 51.5q76 0 136 -80t103 -219t66 -329.5t23 -412.5q0 -88 -3.5 -178t-11.5 -184h-178q12 141 17.5 275.5t5.5 256.5q0 170 -10.5 314.5t-32 250t-52 165t-69.5 59.5q-47 0 -99.5 -80t-103.5 -219 t-96 -326.5t-76 -402.5l6 -293h-180zM164 0zM325 1534q6 66 21.5 109t35 67.5t45 34.5t54.5 10q37 0 65.5 -18.5t52 -42t46 -42t49.5 -18.5q10 0 20.5 3t18.5 15.5t13 37t5 65.5l119 -33q-6 -66 -21.5 -108.5t-35 -67t-44.5 -35t-54 -10.5q-33 0 -63 18.5t-56.5 42t-50 42 t-43.5 18.5q-10 0 -20.5 -3t-19 -15.5t-13.5 -37t-5 -65.5z" />
<glyph unicode="&#xd2;" horiz-adv-x="1114" d="M123 0zM123 946q0 150 35 240t94 138t138 63.5t167 15.5q90 0 169 -15.5t138.5 -63.5t93 -138t33.5 -240q0 -184 -33.5 -359t-92 -312.5t-137.5 -221.5t-171 -84q-90 0 -170 84t-138.5 221.5t-92 312.5t-33.5 359zM303 946q0 -170 19.5 -330.5t53.5 -286.5t80 -202 t101 -76t102.5 76t81 202t53 286.5t19.5 330.5q0 125 -20.5 199t-55.5 112.5t-81 51t-99 12.5q-51 0 -97 -12.5t-81 -51t-55.5 -112.5t-20.5 -199zM374 1640q0 29 22.5 62t51.5 33q18 0 39 -13q25 -14 67 -44.5t83 -64.5t70.5 -65.5t29.5 -48.5q0 -10 -10.5 -13t-16.5 -3 q-23 0 -64.5 12t-86.5 29.5t-86 36t-62 30.5q-37 20 -37 49z" />
<glyph unicode="&#xd3;" horiz-adv-x="1114" d="M123 0zM123 946q0 150 35 240t94 138t138 63.5t167 15.5q90 0 169 -15.5t138.5 -63.5t93 -138t33.5 -240q0 -184 -33.5 -359t-92 -312.5t-137.5 -221.5t-171 -84q-90 0 -170 84t-138.5 221.5t-92 312.5t-33.5 359zM303 946q0 -170 19.5 -330.5t53.5 -286.5t80 -202 t101 -76t102.5 76t81 202t53 286.5t19.5 330.5q0 125 -20.5 199t-55.5 112.5t-81 51t-99 12.5q-51 0 -97 -12.5t-81 -51t-55.5 -112.5t-20.5 -199zM416 1499q0 16 29.5 48t70.5 66t83 64.5t67 44.5q20 12 39 13q29 0 51 -33t22 -62t-37 -49q-20 -12 -61 -30.5t-86 -36 t-87 -29.5t-65 -12q-6 0 -16 3t-10 13z" />
<glyph unicode="&#xd4;" horiz-adv-x="1114" d="M123 0zM123 946q0 150 35 240t94 138t138 63.5t167 15.5q90 0 169 -15.5t138.5 -63.5t93 -138t33.5 -240q0 -184 -33.5 -359t-92 -312.5t-137.5 -221.5t-171 -84q-90 0 -170 84t-138.5 221.5t-92 312.5t-33.5 359zM303 946q0 -170 19.5 -330.5t53.5 -286.5t80 -202 t101 -76t102.5 76t81 202t53 286.5t19.5 330.5q0 125 -20.5 199t-55.5 112.5t-81 51t-99 12.5q-51 0 -97 -12.5t-81 -51t-55.5 -112.5t-20.5 -199zM317 1499q0 16 26 51t59.5 73t68.5 72t53 48q18 12 33 12q10 0 33 -12q18 -14 53 -48t68.5 -72t59.5 -72.5t26 -51.5 q0 -10 -10.5 -13t-16.5 -3q-16 0 -43 11t-56.5 27.5t-60 35t-53.5 34.5q-23 -16 -53.5 -34.5t-60 -35t-56.5 -27.5t-43 -11q-6 0 -16.5 3t-10.5 13z" />
<glyph unicode="&#xd5;" horiz-adv-x="1114" d="M123 0zM123 946q0 150 35 240t94 138t138 63.5t167 15.5q90 0 169 -15.5t138.5 -63.5t93 -138t33.5 -240q0 -184 -33.5 -359t-92 -312.5t-137.5 -221.5t-171 -84q-90 0 -170 84t-138.5 221.5t-92 312.5t-33.5 359zM284 1534q6 66 21.5 109t35 67.5t45 34.5t54.5 10 q37 0 65.5 -18.5t52 -42t46 -42t49.5 -18.5q10 0 20.5 3t18.5 15.5t13 37t5 65.5l119 -33q-6 -66 -21.5 -108.5t-35 -67t-44.5 -35t-54 -10.5q-33 0 -63 18.5t-56.5 42t-50 42t-43.5 18.5q-10 0 -20.5 -3t-19 -15.5t-13.5 -37t-5 -65.5zM303 946q0 -170 19.5 -330.5 t53.5 -286.5t80 -202t101 -76t102.5 76t81 202t53 286.5t19.5 330.5q0 125 -20.5 199t-55.5 112.5t-81 51t-99 12.5q-51 0 -97 -12.5t-81 -51t-55.5 -112.5t-20.5 -199z" />
<glyph unicode="&#xd6;" horiz-adv-x="1114" d="M123 0zM123 946q0 150 35 240t94 138t138 63.5t167 15.5q90 0 169 -15.5t138.5 -63.5t93 -138t33.5 -240q0 -184 -33.5 -359t-92 -312.5t-137.5 -221.5t-171 -84q-90 0 -170 84t-138.5 221.5t-92 312.5t-33.5 359zM303 946q0 -170 19.5 -330.5t53.5 -286.5t80 -202 t101 -76t102.5 76t81 202t53 286.5t19.5 330.5q0 125 -20.5 199t-55.5 112.5t-81 51t-99 12.5q-51 0 -97 -12.5t-81 -51t-55.5 -112.5t-20.5 -199zM311 1683q0 47 27 59.5t64 12.5t62.5 -12t25.5 -60q0 -31 -6.5 -61.5t-18.5 -55t-28.5 -40t-34.5 -15.5t-35 15.5t-29 40 t-19.5 55.5t-7.5 61zM623 1683q0 47 26.5 59.5t63.5 12.5t62.5 -12t25.5 -60q0 -31 -6 -61.5t-18.5 -55t-29 -40t-34.5 -15.5t-34.5 15.5t-29 40t-19.5 55.5t-7 61z" />
<glyph unicode="&#xd7;" d="M178 377l283 282l-283 283l72 72l282 -283l283 283l72 -72l-283 -283l283 -282l-72 -72l-283 283l-282 -283z" />
<glyph unicode="&#xd8;" horiz-adv-x="1114" d="M123 0zM123 946q0 150 35 240t94 138t138 63.5t167 15.5q90 0 169 -15.5t138.5 -63.5t93 -138t33.5 -240q0 -184 -33.5 -359t-92 -312.5t-137.5 -221.5t-171 -84q-90 0 -170 84t-138.5 221.5t-92 312.5t-33.5 359zM211 -115l596 1637l96 -35l-596 -1637zM303 946 q0 -170 19.5 -330.5t53.5 -286.5t80 -202t101 -76t102.5 76t81 202t53 286.5t19.5 330.5q0 125 -20.5 199t-55.5 112.5t-81 51t-99 12.5q-51 0 -97 -12.5t-81 -51t-55.5 -112.5t-20.5 -199z" />
<glyph unicode="&#xd9;" horiz-adv-x="1118" d="M123 0zM123 535q0 113 13.5 229.5t37 225t53 206.5t60.5 176h188q-49 -109 -87 -228.5t-63.5 -239.5t-40 -233.5t-14.5 -211.5q0 -199 79 -303.5t212 -104.5q131 0 211 104.5t80 303.5q0 98 -14.5 211.5t-40 233.5t-63.5 240t-87 228h189q31 -78 60.5 -176t53 -206.5 t36.5 -225.5t13 -229q0 -115 -22.5 -217.5t-73.5 -180.5t-135 -123t-207 -45t-207 45t-135 123t-73.5 180.5t-22.5 217.5zM376 1640q0 29 22.5 62t51.5 33q18 0 39 -13q25 -14 67 -44.5t83 -64.5t70.5 -65.5t29.5 -48.5q0 -10 -10.5 -13t-16.5 -3q-23 0 -64.5 12t-86.5 29.5 t-86 36t-62 30.5q-37 20 -37 49z" />
<glyph unicode="&#xda;" horiz-adv-x="1118" d="M123 0zM123 535q0 113 13.5 229.5t37 225t53 206.5t60.5 176h188q-49 -109 -87 -228.5t-63.5 -239.5t-40 -233.5t-14.5 -211.5q0 -199 79 -303.5t212 -104.5q131 0 211 104.5t80 303.5q0 98 -14.5 211.5t-40 233.5t-63.5 240t-87 228h189q31 -78 60.5 -176t53 -206.5 t36.5 -225.5t13 -229q0 -115 -22.5 -217.5t-73.5 -180.5t-135 -123t-207 -45t-207 45t-135 123t-73.5 180.5t-22.5 217.5zM418 1499q0 16 29.5 48t70.5 66t83 64.5t67 44.5q20 12 39 13q29 0 51 -33t22 -62t-37 -49q-20 -12 -61 -30.5t-86 -36t-87 -29.5t-65 -12q-6 0 -16 3 t-10 13z" />
<glyph unicode="&#xdb;" horiz-adv-x="1122" d="M123 0zM123 535q0 113 13.5 229.5t37 225t53 206.5t60.5 176h188q-49 -109 -87 -228.5t-63.5 -239.5t-40 -233.5t-14.5 -211.5q0 -199 79 -303.5t212 -104.5q131 0 211 104.5t80 303.5q0 98 -14.5 211.5t-40 233.5t-63.5 240t-87 228h189q31 -78 60.5 -176t53 -206.5 t36.5 -225.5t13 -229q0 -115 -22.5 -217.5t-73.5 -180.5t-135 -123t-207 -45t-207 45t-135 123t-73.5 180.5t-22.5 217.5zM321 1499q0 16 26 51t59.5 73t68.5 72t53 48q18 12 33 12q10 0 33 -12q18 -14 53 -48t68.5 -72t59.5 -72.5t26 -51.5q0 -10 -10.5 -13t-16.5 -3 q-16 0 -43 11t-56.5 27.5t-60 35t-53.5 34.5q-23 -16 -53.5 -34.5t-60 -35t-56.5 -27.5t-43 -11q-6 0 -16.5 3t-10.5 13z" />
<glyph unicode="&#xdc;" horiz-adv-x="1118" d="M123 0zM123 535q0 113 13.5 229.5t37 225t53 206.5t60.5 176h188q-49 -109 -87 -228.5t-63.5 -239.5t-40 -233.5t-14.5 -211.5q0 -199 79 -303.5t212 -104.5q131 0 211 104.5t80 303.5q0 98 -14.5 211.5t-40 233.5t-63.5 240t-87 228h189q31 -78 60.5 -176t53 -206.5 t36.5 -225.5t13 -229q0 -115 -22.5 -217.5t-73.5 -180.5t-135 -123t-207 -45t-207 45t-135 123t-73.5 180.5t-22.5 217.5zM313 1683q0 47 27 59.5t64 12.5t62.5 -12t25.5 -60q0 -31 -6.5 -61.5t-18.5 -55t-28.5 -40t-34.5 -15.5t-35 15.5t-29 40t-19.5 55.5t-7.5 61z M625 1683q0 47 26.5 59.5t63.5 12.5t62.5 -12t25.5 -60q0 -31 -6 -61.5t-18.5 -55t-29 -40t-34.5 -15.5t-34.5 15.5t-29 40t-19.5 55.5t-7 61z" />
<glyph unicode="&#xdd;" horiz-adv-x="1007" d="M102 0zM102 1372h174q0 -193 11.5 -367t37 -305t69.5 -208.5t112 -77.5t110.5 77.5t68.5 208.5t37 305.5t11 366.5h172q0 -217 -26.5 -395t-72.5 -311.5t-108.5 -215t-134.5 -106.5l31 -344h-180l32 344q-74 25 -136 106.5t-108 214t-73 311.5t-27 396zM326 1499 q0 16 29.5 48t70.5 66t83 64.5t67 44.5q20 12 39 13q29 0 51 -33t22 -62t-37 -49q-20 -12 -61 -30.5t-86 -36t-87 -29.5t-65 -12q-6 0 -16 3t-10 13z" />
<glyph unicode="&#xde;" horiz-adv-x="966" d="M164 1372h180l-4 -158q18 2 36.5 3.5t35.5 1.5q238 0 365.5 -103.5t127.5 -300.5q0 -113 -47 -213t-128 -186t-188.5 -157t-226.5 -126l-2 -133h-114zM317 225q80 47 154 109.5t130 137.5t90 160t34 181q0 154 -75.5 235.5t-239.5 81.5q-16 0 -35 -1t-37 -3z" />
<glyph unicode="&#xdf;" horiz-adv-x="1249" d="M102 958v99h181q16 111 42.5 204t62.5 159.5t82 103.5t103 37q74 0 132.5 -51.5t99.5 -134.5t63.5 -187.5t22.5 -208.5q0 -150 -39 -215.5t-115 -85.5q117 -16 196 -54t126 -89.5t67.5 -109.5t20.5 -114q0 -100 -27.5 -165.5t-74 -104.5t-108.5 -55.5t-132 -16.5 t-131.5 15.5t-106.5 48.5t-71.5 86t-26.5 131h160q0 -102 51 -140t125 -38q37 0 68.5 9t56 35.5t38 74t13.5 120.5q0 49 -9 104.5t-48 102.5t-116 78t-214 31v82q29 0 57.5 10t52 38.5t38 83t14.5 140.5q0 135 -17.5 229.5t-45 152.5t-59.5 85t-61 27t-60.5 -30t-57 -98.5 t-42 -183t-16.5 -284.5v-879h-178l37 782q4 88 12 168z" />
<glyph unicode="&#xe0;" horiz-adv-x="890" d="M100 0zM100 266q0 76 33 135.5t88 99.5t128 61.5t153 21.5q49 0 106 -11q-10 88 -27.5 166t-40 136.5t-49 92t-55.5 33.5q-39 0 -72.5 -75.5t-33.5 -198.5l-166 43q23 94 51.5 155.5t63 97.5t74.5 50t83 14q74 0 138.5 -66.5t112.5 -174t74.5 -243.5t26.5 -275 q0 -117 -27.5 -186.5t-75.5 -108.5t-112.5 -51.5t-136.5 -12.5t-133 11.5t-106 44t-71 91t-26 150.5zM264 1333q0 29 22.5 61.5t51.5 32.5q18 0 39 -12q25 -14 67 -45t83 -64.5t70.5 -65.5t29.5 -48q0 -10 -10.5 -13t-16.5 -3q-23 0 -64.5 12t-86.5 29.5t-86 36t-62 30.5 q-37 20 -37 49zM266 266q0 -66 12.5 -107.5t35 -65t53 -32t69.5 -8.5t73 9.5t59.5 39t40 83t14.5 143.5q0 78 -7 155q-16 2 -30.5 3t-28.5 1q-59 0 -111.5 -12t-92.5 -38.5t-63.5 -68.5t-23.5 -102z" />
<glyph unicode="&#xe1;" horiz-adv-x="890" d="M100 0zM100 266q0 76 33 135.5t88 99.5t128 61.5t153 21.5q49 0 106 -11q-10 88 -27.5 166t-40 136.5t-49 92t-55.5 33.5q-39 0 -72.5 -75.5t-33.5 -198.5l-166 43q23 94 51.5 155.5t63 97.5t74.5 50t83 14q74 0 138.5 -66.5t112.5 -174t74.5 -243.5t26.5 -275 q0 -117 -27.5 -186.5t-75.5 -108.5t-112.5 -51.5t-136.5 -12.5t-133 11.5t-106 44t-71 91t-26 150.5zM266 266q0 -66 12.5 -107.5t35 -65t53 -32t69.5 -8.5t73 9.5t59.5 39t40 83t14.5 143.5q0 78 -7 155q-16 2 -30.5 3t-28.5 1q-59 0 -111.5 -12t-92.5 -38.5t-63.5 -68.5 t-23.5 -102zM275 1192q0 16 29.5 48t70.5 65.5t83 64.5t67 45q20 12 39 12q29 0 51 -32.5t22 -61.5t-36 -49q-20 -12 -61.5 -30.5t-86.5 -36t-87 -29.5t-65 -12q-6 0 -16 3t-10 13z" />
<glyph unicode="&#xe2;" horiz-adv-x="890" d="M100 0zM100 266q0 76 33 135.5t88 99.5t128 61.5t153 21.5q49 0 106 -11q-10 88 -27.5 166t-40 136.5t-49 92t-55.5 33.5q-39 0 -72.5 -75.5t-33.5 -198.5l-166 43q23 94 51.5 155.5t63 97.5t74.5 50t83 14q74 0 138.5 -66.5t112.5 -174t74.5 -243.5t26.5 -275 q0 -117 -27.5 -186.5t-75.5 -108.5t-112.5 -51.5t-136.5 -12.5t-133 11.5t-106 44t-71 91t-26 150.5zM204 1192q0 16 26 51t59.5 73t68.5 71.5t53 48.5q18 12 33 12q10 0 33 -12q18 -14 53 -48t68.5 -72t59.5 -73t26 -51q0 -10 -10.5 -13t-16.5 -3q-16 0 -43 11t-56.5 27.5 t-60 35t-53.5 34.5q-23 -16 -53.5 -34.5t-60 -35t-56.5 -27.5t-43 -11q-6 0 -16.5 3t-10.5 13zM266 266q0 -66 12.5 -107.5t35 -65t53 -32t69.5 -8.5t73 9.5t59.5 39t40 83t14.5 143.5q0 78 -7 155q-16 2 -30.5 3t-28.5 1q-59 0 -111.5 -12t-92.5 -38.5t-63.5 -68.5 t-23.5 -102z" />
<glyph unicode="&#xe3;" horiz-adv-x="890" d="M100 0zM100 266q0 76 33 135.5t88 99.5t128 61.5t153 21.5q49 0 106 -11q-10 88 -27.5 166t-40 136.5t-49 92t-55.5 33.5q-39 0 -72.5 -75.5t-33.5 -198.5l-166 43q23 94 51.5 155.5t63 97.5t74.5 50t83 14q74 0 138.5 -66.5t112.5 -174t74.5 -243.5t26.5 -275 q0 -117 -27.5 -186.5t-75.5 -108.5t-112.5 -51.5t-136.5 -12.5t-133 11.5t-106 44t-71 91t-26 150.5zM172 1227q6 66 21.5 108.5t35 67t45 35t54.5 10.5q37 0 65.5 -18.5t52 -42t46 -42t49.5 -18.5q10 0 20.5 3t18.5 15.5t13 37t5 65.5l119 -33q-6 -66 -21.5 -108.5 t-35 -67.5t-44.5 -35t-54 -10q-33 0 -63 18.5t-56.5 42t-50 42t-43.5 18.5q-10 0 -20.5 -3t-19 -15.5t-13.5 -37t-5 -65.5zM266 266q0 -66 12.5 -107.5t35 -65t53 -32t69.5 -8.5t73 9.5t59.5 39t40 83t14.5 143.5q0 78 -7 155q-16 2 -30.5 3t-28.5 1q-59 0 -111.5 -12 t-92.5 -38.5t-63.5 -68.5t-23.5 -102z" />
<glyph unicode="&#xe4;" horiz-adv-x="890" d="M100 0zM100 266q0 76 33 135.5t88 99.5t128 61.5t153 21.5q49 0 106 -11q-10 88 -27.5 166t-40 136.5t-49 92t-55.5 33.5q-39 0 -72.5 -75.5t-33.5 -198.5l-166 43q23 94 51.5 155.5t63 97.5t74.5 50t83 14q74 0 138.5 -66.5t112.5 -174t74.5 -243.5t26.5 -275 q0 -117 -27.5 -186.5t-75.5 -108.5t-112.5 -51.5t-136.5 -12.5t-133 11.5t-106 44t-71 91t-26 150.5zM200 1376q0 47 27 59.5t64 12.5t62.5 -12.5t25.5 -59.5q0 -31 -6.5 -61.5t-18.5 -55t-28.5 -40t-34.5 -15.5t-35 15.5t-29 40t-19.5 55.5t-7.5 61zM266 266 q0 -66 12.5 -107.5t35 -65t53 -32t69.5 -8.5t73 9.5t59.5 39t40 83t14.5 143.5q0 78 -7 155q-16 2 -30.5 3t-28.5 1q-59 0 -111.5 -12t-92.5 -38.5t-63.5 -68.5t-23.5 -102zM512 1376q0 47 26.5 59.5t63.5 12.5t62.5 -12.5t25.5 -59.5q0 -31 -6 -61.5t-18.5 -55t-29 -40 t-34.5 -15.5t-34.5 15.5t-29 40t-19.5 55.5t-7 61z" />
<glyph unicode="&#xe5;" horiz-adv-x="890" d="M100 0zM100 266q0 76 33 135.5t88 99.5t128 61.5t153 21.5q49 0 106 -11q-10 88 -27.5 166t-40 136.5t-49 92t-55.5 33.5q-39 0 -72.5 -75.5t-33.5 -198.5l-166 43q23 94 51.5 155.5t63 97.5t74.5 50t83 14q74 0 138.5 -66.5t112.5 -174t74.5 -243.5t26.5 -275 q0 -117 -27.5 -186.5t-75.5 -108.5t-112.5 -51.5t-136.5 -12.5t-133 11.5t-106 44t-71 91t-26 150.5zM266 266q0 -66 12.5 -107.5t35 -65t53 -32t69.5 -8.5t73 9.5t59.5 39t40 83t14.5 143.5q0 78 -7 155q-16 2 -30.5 3t-28.5 1q-59 0 -111.5 -12t-92.5 -38.5t-63.5 -68.5 t-23.5 -102zM281 1384q0 59 49 76t117 17t115 -16.5t47 -76.5q0 -41 -12.5 -79.5t-34 -69.5t-51 -49.5t-64.5 -18.5t-64.5 18.5t-52 49.5t-36 69.5t-13.5 79.5zM381 1350q0 -31 18.5 -66t47.5 -35q27 0 44 35t17 66q0 25 -17 35t-44 10q-29 0 -47.5 -10.5t-18.5 -34.5z" />
<glyph unicode="&#xe6;" horiz-adv-x="1433" d="M100 266q0 76 33 136.5t88 103.5t128 65.5t153 22.5q47 0 104 -10q-10 86 -27.5 162.5t-40 133t-48 89t-54.5 32.5q-39 0 -72.5 -75.5t-33.5 -198.5l-166 43q23 94 51.5 155.5t63 97.5t74.5 50t83 14q57 0 108.5 -39.5t92.5 -107.5q45 92 128 119.5t187 27.5 q72 0 135.5 -14t110.5 -49t74.5 -91t27.5 -142q0 -61 -21.5 -122t-65.5 -109t-111.5 -78.5t-159.5 -30.5q-78 0 -160 20q10 -86 27.5 -162t39 -132t48.5 -89t55 -33q37 0 69 71t56 191l146 -26q-47 -147 -122 -234.5t-149 -87.5q-57 0 -108 39t-94 109q-23 -47 -54.5 -76 t-72.5 -44t-88.5 -21.5t-98.5 -6.5q-72 0 -133 11.5t-106 44t-71 91t-26 150.5zM266 266q0 -66 12.5 -107.5t35 -65t53 -32t69.5 -8.5t73 9.5t59.5 39t40 83t14.5 143.5q0 41 -2.5 84t-6.5 84q-14 2 -28.5 2h-28.5q-59 0 -111.5 -13.5t-92.5 -42t-63.5 -72.5t-23.5 -104z M766 729q0 -88 6 -170q35 -6 65.5 -8t59.5 -2q72 0 119 19.5t73.5 52t37 76.5t10.5 94q0 117 -53.5 165t-131.5 48q-39 0 -72.5 -9.5t-59 -39t-40 -84t-14.5 -142.5z" />
<glyph unicode="&#xe7;" horiz-adv-x="870" d="M102 0zM102 729q0 117 27 186.5t73 108.5t107.5 51t130.5 12q70 0 132.5 -12t110.5 -46t75.5 -96.5t27.5 -162.5l-165 -41q0 88 -14.5 142.5t-38 84t-55.5 39t-69 9.5t-68.5 -9.5t-55 -39t-38 -84t-14.5 -142.5q0 -125 13.5 -246t37 -216t55.5 -153.5t68 -58.5 q35 0 65 71t52 191l146 -26q-47 -147 -120 -234.5t-145 -87.5t-133 66.5t-107 174t-72 244t-26 275.5zM133 -317q0 41 17 86l112 -17q-4 -20 -6 -37.5t-2 -31.5q0 -53 33 -73t80 -20q61 0 85.5 37t24.5 90q0 76 -38.5 150t-104.5 143l74 37q88 -84 138 -164t50 -166 q0 -92 -58 -145t-171 -53q-47 0 -90 8t-75 26.5t-50.5 50t-18.5 79.5z" />
<glyph unicode="&#xe8;" horiz-adv-x="966" d="M133 0zM133 729q0 117 27.5 186.5t76 108.5t113 51t135.5 12q72 0 135.5 -14t110.5 -49t75 -91t28 -142q0 -61 -21.5 -120t-66 -106t-112 -75.5t-159.5 -28.5q-37 0 -78 5t-84 15q10 -88 27.5 -165.5t40 -135t49.5 -91.5t55 -34q37 0 69 71t56 191l146 -26 q-47 -147 -122 -234.5t-149 -87.5t-138 66.5t-112.5 174t-75 244t-26.5 275.5zM299 729q0 -84 6 -160q35 -6 65.5 -8t59.5 -2q72 0 119 17.5t73.5 48t37 73.5t10.5 93q0 117 -53.5 165t-131.5 48q-39 0 -72.5 -9.5t-59 -39t-40 -84t-14.5 -142.5zM301 1333q0 29 22.5 61.5 t51.5 32.5q18 0 39 -12q25 -14 67 -45t83 -64.5t70.5 -65.5t29.5 -48q0 -10 -10.5 -13t-16.5 -3q-23 0 -64.5 12t-86.5 29.5t-86 36t-62 30.5q-37 20 -37 49z" />
<glyph unicode="&#xe9;" horiz-adv-x="966" d="M133 0zM133 729q0 117 27.5 186.5t76 108.5t113 51t135.5 12q72 0 135.5 -14t110.5 -49t75 -91t28 -142q0 -61 -21.5 -120t-66 -106t-112 -75.5t-159.5 -28.5q-37 0 -78 5t-84 15q10 -88 27.5 -165.5t40 -135t49.5 -91.5t55 -34q37 0 69 71t56 191l146 -26 q-47 -147 -122 -234.5t-149 -87.5t-138 66.5t-112.5 174t-75 244t-26.5 275.5zM299 729q0 -84 6 -160q35 -6 65.5 -8t59.5 -2q72 0 119 17.5t73.5 48t37 73.5t10.5 93q0 117 -53.5 165t-131.5 48q-39 0 -72.5 -9.5t-59 -39t-40 -84t-14.5 -142.5zM311 1192q0 16 29.5 48 t70.5 65.5t83 64.5t67 45q20 12 39 12q29 0 51 -32.5t22 -61.5t-36 -49q-20 -12 -61.5 -30.5t-86.5 -36t-87 -29.5t-65 -12q-6 0 -16 3t-10 13z" />
<glyph unicode="&#xea;" horiz-adv-x="966" d="M133 0zM133 729q0 117 27.5 186.5t76 108.5t113 51t135.5 12q72 0 135.5 -14t110.5 -49t75 -91t28 -142q0 -61 -21.5 -120t-66 -106t-112 -75.5t-159.5 -28.5q-37 0 -78 5t-84 15q10 -88 27.5 -165.5t40 -135t49.5 -91.5t55 -34q37 0 69 71t56 191l146 -26 q-47 -147 -122 -234.5t-149 -87.5t-138 66.5t-112.5 174t-75 244t-26.5 275.5zM243 1192q0 16 26 51t59.5 73t68.5 71.5t53 48.5q18 12 33 12q10 0 33 -12q18 -14 53 -48t68.5 -72t59.5 -73t26 -51q0 -10 -10.5 -13t-16.5 -3q-16 0 -43 11t-56.5 27.5t-60 35t-53.5 34.5 q-23 -16 -53.5 -34.5t-60 -35t-56.5 -27.5t-43 -11q-6 0 -16.5 3t-10.5 13zM299 729q0 -84 6 -160q35 -6 65.5 -8t59.5 -2q72 0 119 17.5t73.5 48t37 73.5t10.5 93q0 117 -53.5 165t-131.5 48q-39 0 -72.5 -9.5t-59 -39t-40 -84t-14.5 -142.5z" />
<glyph unicode="&#xeb;" horiz-adv-x="966" d="M133 0zM133 729q0 117 27.5 186.5t76 108.5t113 51t135.5 12q72 0 135.5 -14t110.5 -49t75 -91t28 -142q0 -61 -21.5 -120t-66 -106t-112 -75.5t-159.5 -28.5q-37 0 -78 5t-84 15q10 -88 27.5 -165.5t40 -135t49.5 -91.5t55 -34q37 0 69 71t56 191l146 -26 q-47 -147 -122 -234.5t-149 -87.5t-138 66.5t-112.5 174t-75 244t-26.5 275.5zM237 1376q0 47 27 59.5t64 12.5t62.5 -12.5t25.5 -59.5q0 -31 -6.5 -61.5t-18.5 -55t-28.5 -40t-34.5 -15.5t-35 15.5t-29 40t-19.5 55.5t-7.5 61zM299 729q0 -84 6 -160q35 -6 65.5 -8t59.5 -2 q72 0 119 17.5t73.5 48t37 73.5t10.5 93q0 117 -53.5 165t-131.5 48q-39 0 -72.5 -9.5t-59 -39t-40 -84t-14.5 -142.5zM549 1376q0 47 26.5 59.5t63.5 12.5t62.5 -12.5t25.5 -59.5q0 -31 -6 -61.5t-18.5 -55t-29 -40t-34.5 -15.5t-34.5 15.5t-29 40t-19.5 55.5t-7 61z" />
<glyph unicode="&#xec;" horiz-adv-x="514" d="M77 1333q0 29 22.5 61.5t51.5 32.5q18 0 39 -12q25 -14 67 -45t83 -64.5t70.5 -65.5t29.5 -48q0 -10 -10.5 -13t-16.5 -3q-23 0 -64.5 12t-86.5 29.5t-86 36t-62 30.5q-37 20 -37 49zM78 0zM180 1057h160l-23 -1057h-114z" />
<glyph unicode="&#xed;" horiz-adv-x="514" d="M86 0zM86 1192q0 16 29.5 48t70.5 65.5t83 64.5t67 45q20 12 39 12q29 0 51 -32.5t22 -61.5t-36 -49q-20 -12 -61.5 -30.5t-86.5 -36t-87 -29.5t-65 -12q-6 0 -16 3t-10 13zM180 1057h160l-23 -1057h-114z" />
<glyph unicode="&#xee;" horiz-adv-x="514" d="M20 0zM20 1192q0 16 26 51t59.5 73t68.5 71.5t53 48.5q18 12 33 12q10 0 33 -12q18 -14 53 -48t68.5 -72t59.5 -73t26 -51q0 -10 -10.5 -13t-16.5 -3q-16 0 -43 11t-56.5 27.5t-60 35t-53.5 34.5q-23 -16 -53.5 -34.5t-60 -35t-56.5 -27.5t-43 -11q-6 0 -16.5 3t-10.5 13 zM180 1057h160l-23 -1057h-114z" />
<glyph unicode="&#xef;" horiz-adv-x="514" d="M14 0zM14 1376q0 47 27 59.5t64 12.5t62.5 -12.5t25.5 -59.5q0 -31 -6.5 -61.5t-18.5 -55t-28.5 -40t-34.5 -15.5t-35 15.5t-29 40t-19.5 55.5t-7.5 61zM180 1057h160l-23 -1057h-114zM326 1376q0 47 26.5 59.5t63.5 12.5t62.5 -12.5t25.5 -59.5q0 -31 -6 -61.5 t-18.5 -55t-29 -40t-34.5 -15.5t-34.5 15.5t-29 40t-19.5 55.5t-7 61z" />
<glyph unicode="&#xf0;" horiz-adv-x="909" d="M102 723q0 117 28 186.5t76 108.5t112.5 51t136.5 12q25 0 53.5 -4t54.5 -14l10 10q-35 59 -83 117.5t-109 118.5l-219 -92v92l153 63q-35 31 -69.5 62.5t-73.5 64.5l70 68q47 -35 92 -72t90 -76l221 94v-92l-153 -65q66 -63 123 -134t100 -150t67.5 -166t24.5 -183 q0 -139 -26.5 -274.5t-75 -242t-113 -172t-137.5 -65.5q-74 0 -138.5 65.5t-112.5 172t-75 242t-27 274.5zM268 723q0 -125 14.5 -246t39 -215t58.5 -151.5t75 -57.5q39 0 73.5 57.5t59 151.5t39 215t14.5 246q0 88 -14.5 142.5t-40 84t-59 38.5t-72.5 9t-73 -9t-59.5 -38.5 t-40 -84t-14.5 -142.5z" />
<glyph unicode="&#xf1;" horiz-adv-x="950" d="M143 0l21 1057h74l38 -588q14 133 37 245.5t54.5 193.5t72.5 127t95 46q70 0 127 -76.5t99 -207.5t65.5 -307.5t23.5 -374.5v-57.5t-2 -57.5h-166q2 47 2 91v89q0 168 -11 316.5t-30.5 259t-48.5 175t-64 64.5q-41 0 -77.5 -80.5t-66.5 -218t-50.5 -317.5t-26.5 -379 h-166zM143 0zM223 1227q6 66 21.5 108.5t35 67t45 35t54.5 10.5q37 0 65.5 -18.5t52 -42t46 -42t49.5 -18.5q10 0 20.5 3t18.5 15.5t13 37t5 65.5l119 -33q-6 -66 -21.5 -108.5t-35 -67.5t-44.5 -35t-54 -10q-33 0 -63 18.5t-56.5 42t-50 42t-43.5 18.5q-10 0 -20.5 -3 t-19 -15.5t-13.5 -37t-5 -65.5z" />
<glyph unicode="&#xf2;" horiz-adv-x="909" d="M102 0zM102 723q0 117 28 186.5t76 108.5t112.5 51t136.5 12t136 -12t112.5 -51t76 -108.5t27.5 -186.5q0 -139 -26.5 -274.5t-75 -242t-112.5 -172t-138 -65.5t-138.5 65.5t-112.5 172t-75 242t-27 274.5zM268 723q0 -125 14.5 -246t39 -215t58.5 -151.5t75 -57.5 q39 0 73.5 57.5t59 151.5t39 215t14.5 246q0 88 -14.5 142.5t-40 84t-59 38.5t-72.5 9t-73 -9t-59.5 -38.5t-40 -84t-14.5 -142.5zM272 1333q0 29 22.5 61.5t51.5 32.5q18 0 39 -12q25 -14 67 -45t83 -64.5t70.5 -65.5t29.5 -48q0 -10 -10.5 -13t-16.5 -3q-23 0 -64.5 12 t-86.5 29.5t-86 36t-62 30.5q-37 20 -37 49z" />
<glyph unicode="&#xf3;" horiz-adv-x="909" d="M102 0zM102 723q0 117 28 186.5t76 108.5t112.5 51t136.5 12t136 -12t112.5 -51t76 -108.5t27.5 -186.5q0 -139 -26.5 -274.5t-75 -242t-112.5 -172t-138 -65.5t-138.5 65.5t-112.5 172t-75 242t-27 274.5zM268 723q0 -125 14.5 -246t39 -215t58.5 -151.5t75 -57.5 q39 0 73.5 57.5t59 151.5t39 215t14.5 246q0 88 -14.5 142.5t-40 84t-59 38.5t-72.5 9t-73 -9t-59.5 -38.5t-40 -84t-14.5 -142.5zM283 1192q0 16 29.5 48t70.5 65.5t83 64.5t67 45q20 12 39 12q29 0 51 -32.5t22 -61.5t-36 -49q-20 -12 -61.5 -30.5t-86.5 -36t-87 -29.5 t-65 -12q-6 0 -16 3t-10 13z" />
<glyph unicode="&#xf4;" horiz-adv-x="909" d="M102 0zM102 723q0 117 28 186.5t76 108.5t112.5 51t136.5 12t136 -12t112.5 -51t76 -108.5t27.5 -186.5q0 -139 -26.5 -274.5t-75 -242t-112.5 -172t-138 -65.5t-138.5 65.5t-112.5 172t-75 242t-27 274.5zM215 1192q0 16 26 51t59.5 73t68.5 71.5t53 48.5q18 12 33 12 q10 0 33 -12q18 -14 53 -48t68.5 -72t59.5 -73t26 -51q0 -10 -10.5 -13t-16.5 -3q-16 0 -43 11t-56.5 27.5t-60 35t-53.5 34.5q-23 -16 -53.5 -34.5t-60 -35t-56.5 -27.5t-43 -11q-6 0 -16.5 3t-10.5 13zM268 723q0 -125 14.5 -246t39 -215t58.5 -151.5t75 -57.5 q39 0 73.5 57.5t59 151.5t39 215t14.5 246q0 88 -14.5 142.5t-40 84t-59 38.5t-72.5 9t-73 -9t-59.5 -38.5t-40 -84t-14.5 -142.5z" />
<glyph unicode="&#xf5;" horiz-adv-x="909" d="M102 0zM102 723q0 117 28 186.5t76 108.5t112.5 51t136.5 12t136 -12t112.5 -51t76 -108.5t27.5 -186.5q0 -139 -26.5 -274.5t-75 -242t-112.5 -172t-138 -65.5t-138.5 65.5t-112.5 172t-75 242t-27 274.5zM182 1227q6 66 21.5 108.5t35 67t45 35t54.5 10.5 q37 0 65.5 -18.5t52 -42t46 -42t49.5 -18.5q10 0 20.5 3t18.5 15.5t13 37t5 65.5l119 -33q-6 -66 -21.5 -108.5t-35 -67.5t-44.5 -35t-54 -10q-33 0 -63 18.5t-56.5 42t-50 42t-43.5 18.5q-10 0 -20.5 -3t-19 -15.5t-13.5 -37t-5 -65.5zM268 723q0 -125 14.5 -246t39 -215 t58.5 -151.5t75 -57.5q39 0 73.5 57.5t59 151.5t39 215t14.5 246q0 88 -14.5 142.5t-40 84t-59 38.5t-72.5 9t-73 -9t-59.5 -38.5t-40 -84t-14.5 -142.5z" />
<glyph unicode="&#xf6;" horiz-adv-x="909" d="M102 0zM102 723q0 117 28 186.5t76 108.5t112.5 51t136.5 12t136 -12t112.5 -51t76 -108.5t27.5 -186.5q0 -139 -26.5 -274.5t-75 -242t-112.5 -172t-138 -65.5t-138.5 65.5t-112.5 172t-75 242t-27 274.5zM208 1376q0 47 27 59.5t64 12.5t62.5 -12.5t25.5 -59.5 q0 -31 -6.5 -61.5t-18.5 -55t-28.5 -40t-34.5 -15.5t-35 15.5t-29 40t-19.5 55.5t-7.5 61zM268 723q0 -125 14.5 -246t39 -215t58.5 -151.5t75 -57.5q39 0 73.5 57.5t59 151.5t39 215t14.5 246q0 88 -14.5 142.5t-40 84t-59 38.5t-72.5 9t-73 -9t-59.5 -38.5t-40 -84 t-14.5 -142.5zM520 1376q0 47 26.5 59.5t63.5 12.5t62.5 -12.5t25.5 -59.5q0 -31 -6 -61.5t-18.5 -55t-29 -40t-34.5 -15.5t-34.5 15.5t-29 40t-19.5 55.5t-7 61z" />
<glyph unicode="&#xf7;" d="M143 608v103h779v-103h-779zM428 338q0 45 30.5 75.5t76.5 30.5q45 0 75.5 -30.5t30.5 -75.5t-30.5 -76t-75.5 -31t-76 31t-31 76zM428 981q0 45 30.5 75.5t76.5 30.5q45 0 75.5 -30.5t30.5 -75.5t-30.5 -76t-75.5 -31t-76 31t-31 76z" />
<glyph unicode="&#xf8;" horiz-adv-x="909" d="M102 0zM102 723q0 117 28 186.5t76 108.5t112.5 51t136.5 12t136 -12t112.5 -51t76 -108.5t27.5 -186.5q0 -139 -26.5 -274.5t-75 -242t-112.5 -172t-138 -65.5t-138.5 65.5t-112.5 172t-75 242t-27 274.5zM109 -275l596 1637l96 -35l-596 -1637zM268 723 q0 -125 14.5 -246t39 -215t58.5 -151.5t75 -57.5q39 0 73.5 57.5t59 151.5t39 215t14.5 246q0 88 -14.5 142.5t-40 84t-59 38.5t-72.5 9t-73 -9t-59.5 -38.5t-40 -84t-14.5 -142.5z" />
<glyph unicode="&#xf9;" horiz-adv-x="1007" d="M143 0zM143 408q0 88 11.5 178t28 175t36 160.5t35.5 135.5h166q-59 -170 -100 -349.5t-41 -377.5q0 -78 17 -130.5t48 -85t72 -47t88 -14.5t88 14.5t71.5 47t48 85t17.5 130.5q0 199 -41 378t-100 349h166q16 -59 35.5 -135t36 -161t27.5 -175t11 -178t-18.5 -168 t-60.5 -139.5t-110.5 -95.5t-170.5 -36t-171 36t-111 95.5t-60.5 139t-18.5 168.5zM303 1333q0 29 22.5 61.5t51.5 32.5q18 0 39 -12q25 -14 67 -45t83 -64.5t70.5 -65.5t29.5 -48q0 -10 -10.5 -13t-16.5 -3q-23 0 -64.5 12t-86.5 29.5t-86 36t-62 30.5q-37 20 -37 49z" />
<glyph unicode="&#xfa;" horiz-adv-x="1007" d="M143 0zM143 408q0 88 11.5 178t28 175t36 160.5t35.5 135.5h166q-59 -170 -100 -349.5t-41 -377.5q0 -78 17 -130.5t48 -85t72 -47t88 -14.5t88 14.5t71.5 47t48 85t17.5 130.5q0 199 -41 378t-100 349h166q16 -59 35.5 -135t36 -161t27.5 -175t11 -178t-18.5 -168 t-60.5 -139.5t-110.5 -95.5t-170.5 -36t-171 36t-111 95.5t-60.5 139t-18.5 168.5zM365 1192q0 16 29.5 48t70.5 65.5t83 64.5t67 45q20 12 39 12q29 0 51 -32.5t22 -61.5t-36 -49q-20 -12 -61.5 -30.5t-86.5 -36t-87 -29.5t-65 -12q-6 0 -16 3t-10 13z" />
<glyph unicode="&#xfb;" horiz-adv-x="1007" d="M143 0zM143 408q0 88 11.5 178t28 175t36 160.5t35.5 135.5h166q-59 -170 -100 -349.5t-41 -377.5q0 -78 17 -130.5t48 -85t72 -47t88 -14.5t88 14.5t71.5 47t48 85t17.5 130.5q0 199 -41 378t-100 349h166q16 -59 35.5 -135t36 -161t27.5 -175t11 -178t-18.5 -168 t-60.5 -139.5t-110.5 -95.5t-170.5 -36t-171 36t-111 95.5t-60.5 139t-18.5 168.5zM264 1192q0 16 26 51t59.5 73t68.5 71.5t53 48.5q18 12 33 12q10 0 33 -12q18 -14 53 -48t68.5 -72t59.5 -73t26 -51q0 -10 -10.5 -13t-16.5 -3q-16 0 -43 11t-56.5 27.5t-60 35t-53.5 34.5 q-23 -16 -53.5 -34.5t-60 -35t-56.5 -27.5t-43 -11q-6 0 -16.5 3t-10.5 13z" />
<glyph unicode="&#xfc;" horiz-adv-x="1007" d="M143 0zM143 408q0 88 11.5 178t28 175t36 160.5t35.5 135.5h166q-59 -170 -100 -349.5t-41 -377.5q0 -78 17 -130.5t48 -85t72 -47t88 -14.5t88 14.5t71.5 47t48 85t17.5 130.5q0 199 -41 378t-100 349h166q16 -59 35.5 -135t36 -161t27.5 -175t11 -178t-18.5 -168 t-60.5 -139.5t-110.5 -95.5t-170.5 -36t-171 36t-111 95.5t-60.5 139t-18.5 168.5zM260 1376q0 47 27 59.5t64 12.5t62.5 -12.5t25.5 -59.5q0 -31 -6.5 -61.5t-18.5 -55t-28.5 -40t-34.5 -15.5t-35 15.5t-29 40t-19.5 55.5t-7.5 61zM572 1376q0 47 26.5 59.5t63.5 12.5 t62.5 -12.5t25.5 -59.5q0 -31 -6 -61.5t-18.5 -55t-29 -40t-34.5 -15.5t-34.5 15.5t-29 40t-19.5 55.5t-7 61z" />
<glyph unicode="&#xfd;" horiz-adv-x="909" d="M102 0zM102 1057h166q0 -199 14.5 -375t39 -308t58.5 -210t75 -78q53 0 90 57.5t59.5 157.5t31.5 237.5t9 297.5q0 53 -1 108t-3 113h166q0 -229 -26.5 -440t-71.5 -405t-104.5 -367t-123.5 -324l-135 61q68 119 124 241t99 243q-49 -66 -114 -66q-74 0 -138.5 84 t-112.5 227.5t-75 336t-27 409.5zM336 1192q0 16 29.5 48t70.5 65.5t83 64.5t67 45q20 12 39 12q29 0 51 -32.5t22 -61.5t-36 -49q-20 -12 -61.5 -30.5t-86.5 -36t-87 -29.5t-65 -12q-6 0 -16 3t-10 13z" />
<glyph unicode="&#xfe;" horiz-adv-x="950" d="M143 1536h146l-6 -549q68 94 213 94q72 0 136 -12t112.5 -51t76 -108.5t27.5 -186.5q0 -139 -26.5 -274.5t-75 -242t-113 -172t-137.5 -65.5q-78 0 -132.5 71t-89.5 187l-6 -678h-104zM299 723q0 -125 15.5 -246t43 -215t62.5 -151.5t76 -57.5q39 0 73.5 57.5t59 151.5 t39 215t14.5 246q0 88 -14.5 142.5t-40 84t-59 38.5t-72.5 9t-74 -9t-62.5 -38.5t-44 -84t-16.5 -142.5z" />
<glyph unicode="&#xff;" horiz-adv-x="909" d="M102 0zM102 1057h166q0 -199 14.5 -375t39 -308t58.5 -210t75 -78q53 0 90 57.5t59.5 157.5t31.5 237.5t9 297.5q0 53 -1 108t-3 113h166q0 -229 -26.5 -440t-71.5 -405t-104.5 -367t-123.5 -324l-135 61q68 119 124 241t99 243q-49 -66 -114 -66q-74 0 -138.5 84 t-112.5 227.5t-75 336t-27 409.5zM208 1376q0 47 27 59.5t64 12.5t62.5 -12.5t25.5 -59.5q0 -31 -6.5 -61.5t-18.5 -55t-28.5 -40t-34.5 -15.5t-35 15.5t-29 40t-19.5 55.5t-7.5 61zM520 1376q0 47 26.5 59.5t63.5 12.5t62.5 -12.5t25.5 -59.5q0 -31 -6 -61.5t-18.5 -55 t-29 -40t-34.5 -15.5t-34.5 15.5t-29 40t-19.5 55.5t-7 61z" />
<glyph unicode="&#x152;" horiz-adv-x="1699" d="M123 946q0 150 35 240t94 138t138 63.5t167 15.5q106 0 191.5 -22.5t140.5 -96.5q53 74 135 96.5t182 22.5q80 0 150.5 -13.5t126 -53.5t90.5 -113.5t45 -196.5l-176 -49q-2 113 -21.5 181.5t-51.5 104t-74 47t-89 11.5t-90 -12.5t-74.5 -51t-50 -112.5t-18.5 -199 q0 -84 3 -164t13 -157h400v-93h-388q14 -102 35 -190t47.5 -152.5t57 -101.5t65.5 -37q57 0 103.5 93.5t79.5 240.5l141 -29q-29 -86 -63.5 -156.5t-76.5 -121.5t-88.5 -80t-95.5 -29q-51 0 -97 36t-86 97.5t-72.5 141.5t-59.5 170q-29 -90 -63.5 -170t-76.5 -141.5 t-91.5 -97.5t-102.5 -36q-90 0 -170 84t-138.5 221.5t-92 312.5t-33.5 359zM303 946q0 -170 19.5 -330.5t53.5 -286.5t80 -202t101 -76q53 0 100.5 73t82 196.5t54 285.5t19.5 340q0 125 -20.5 199t-55.5 112.5t-81 51t-99 12.5q-51 0 -97 -12.5t-81 -51t-55.5 -112.5 t-20.5 -199z" />
<glyph unicode="&#x153;" horiz-adv-x="1474" d="M102 723q0 117 28 186.5t76 108.5t112.5 51t136.5 12q78 0 147.5 -15t118.5 -65q47 53 118.5 69.5t153.5 16.5q72 0 135.5 -14t110.5 -49t74.5 -91t27.5 -142q0 -61 -21.5 -120t-65.5 -106t-111.5 -75.5t-159.5 -28.5q-37 0 -78 5t-84 15q10 -88 27.5 -165.5t40 -135 t49.5 -91.5t55 -34q37 0 69 71t56 191l146 -26q-47 -147 -122 -234.5t-149 -87.5q-41 0 -82 28t-76.5 75t-64.5 109.5t-45 131.5q-16 -72 -45 -134t-65.5 -108t-77.5 -74t-82 -28q-74 0 -138.5 65.5t-112.5 172t-75 242t-27 274.5zM268 723q0 -125 14.5 -246t39 -215 t58.5 -151.5t75 -57.5q39 0 73.5 57.5t59 151.5t39 215t14.5 246q0 88 -14.5 142.5t-40 84t-59 38.5t-72.5 9t-73 -9t-59.5 -38.5t-40 -84t-14.5 -142.5zM807 729q0 -53 1 -90t5 -70q35 -6 65.5 -8t59.5 -2q72 0 119 17.5t73.5 48t37 73.5t10.5 93q0 117 -53.5 165 t-131.5 48q-39 0 -72.5 -9.5t-59 -39t-40 -84t-14.5 -142.5z" />
<glyph unicode="&#x178;" horiz-adv-x="1007" d="M102 0zM102 1372h174q0 -193 11.5 -367t37 -305t69.5 -208.5t112 -77.5t110.5 77.5t68.5 208.5t37 305.5t11 366.5h172q0 -217 -26.5 -395t-72.5 -311.5t-108.5 -215t-134.5 -106.5l31 -344h-180l32 344q-74 25 -136 106.5t-108 214t-73 311.5t-27 396zM258 1683 q0 47 27 59.5t64 12.5t62.5 -12t25.5 -60q0 -31 -6.5 -61.5t-18.5 -55t-28.5 -40t-34.5 -15.5t-35 15.5t-29 40t-19.5 55.5t-7.5 61zM570 1683q0 47 26.5 59.5t63.5 12.5t62.5 -12t25.5 -60q0 -31 -6 -61.5t-18.5 -55t-29 -40t-34.5 -15.5t-34.5 15.5t-29 40t-19.5 55.5 t-7 61z" />
<glyph unicode="&#x2c6;" horiz-adv-x="684" d="M102 1192q0 16 26 51t59.5 73t68.5 71.5t53 48.5q18 12 33 12q10 0 33 -12q18 -14 53 -48t68.5 -72t59.5 -73t26 -51q0 -10 -10.5 -13t-16.5 -3q-16 0 -43 11t-56.5 27.5t-60 35t-53.5 34.5q-23 -16 -53.5 -34.5t-60 -35t-56.5 -27.5t-43 -11q-6 0 -16.5 3t-10.5 13z" />
<glyph unicode="&#x2dc;" horiz-adv-x="749" d="M102 1227q6 66 21.5 108.5t35 67t45 35t54.5 10.5q37 0 65.5 -18.5t52 -42t46 -42t49.5 -18.5q10 0 20.5 3t18.5 15.5t13 37t5 65.5l119 -33q-6 -66 -21.5 -108.5t-35 -67.5t-44.5 -35t-54 -10q-33 0 -63 18.5t-56.5 42t-50 42t-43.5 18.5q-10 0 -20.5 -3t-19 -15.5 t-13.5 -37t-5 -65.5z" />
<glyph unicode="&#x2000;" horiz-adv-x="892" />
<glyph unicode="&#x2001;" horiz-adv-x="1784" />
<glyph unicode="&#x2002;" horiz-adv-x="892" />
<glyph unicode="&#x2003;" horiz-adv-x="1784" />
<glyph unicode="&#x2004;" horiz-adv-x="594" />
<glyph unicode="&#x2005;" horiz-adv-x="446" />
<glyph unicode="&#x2006;" horiz-adv-x="297" />
<glyph unicode="&#x2007;" horiz-adv-x="297" />
<glyph unicode="&#x2008;" horiz-adv-x="223" />
<glyph unicode="&#x2009;" horiz-adv-x="356" />
<glyph unicode="&#x200a;" horiz-adv-x="99" />
<glyph unicode="&#x2010;" horiz-adv-x="796" d="M102 588v108h592v-137z" />
<glyph unicode="&#x2011;" horiz-adv-x="796" d="M102 588v108h592v-137z" />
<glyph unicode="&#x2012;" horiz-adv-x="796" d="M102 588v108h592v-137z" />
<glyph unicode="&#x2013;" horiz-adv-x="1114" d="M0 594v102h1114v-102h-1114z" />
<glyph unicode="&#x2014;" horiz-adv-x="1673" d="M0 594v102h1673v-102h-1673z" />
<glyph unicode="&#x2018;" horiz-adv-x="456" d="M102 1077q0 84 20.5 151.5t51.5 119t66.5 87t66.5 56.5l47 -55q-41 -35 -71.5 -88.5t-30.5 -106.5q29 -20 47 -62t18 -102q0 -57 -31.5 -71.5t-76.5 -14.5t-76 14.5t-31 71.5z" />
<glyph unicode="&#x2019;" horiz-adv-x="456" d="M102 1047q41 35 72 88t31 106q-29 20 -47.5 62.5t-18.5 101.5q0 57 32 71.5t77 14.5t75.5 -14.5t30.5 -71.5q0 -84 -20.5 -151.5t-51 -119t-66.5 -87t-66 -56.5z" />
<glyph unicode="&#x201a;" horiz-adv-x="419" d="M66 0zM66 -182q41 35 71.5 88t30.5 106q-29 20 -47.5 62.5t-18.5 101.5q0 57 32 71.5t77 14.5t75.5 -14.5t30.5 -71.5q0 -84 -20.5 -151.5t-51 -118.5t-66.5 -87t-66 -57z" />
<glyph unicode="&#x201c;" horiz-adv-x="784" d="M102 1077q0 84 20.5 151.5t51.5 119t66.5 87t66.5 56.5l47 -55q-41 -35 -71.5 -88.5t-30.5 -106.5q29 -20 47 -62t18 -102q0 -57 -31.5 -71.5t-76.5 -14.5t-76 14.5t-31 71.5zM430 1077q0 84 20.5 151.5t51 119t66.5 87t67 56.5l47 -55q-41 -35 -71.5 -88.5t-30.5 -106.5 q29 -20 47 -62t18 -102q0 -57 -31.5 -71.5t-76.5 -14.5t-76 14.5t-31 71.5z" />
<glyph unicode="&#x201d;" horiz-adv-x="784" d="M102 1047q41 35 72 88t31 106q-29 20 -47.5 62.5t-18.5 101.5q0 57 32 71.5t77 14.5t75.5 -14.5t30.5 -71.5q0 -84 -20.5 -151.5t-51 -119t-66.5 -87t-66 -56.5zM430 1047q41 35 71.5 88t30.5 106q-29 20 -47 62.5t-18 101.5q0 57 31.5 71.5t76.5 14.5t76 -14.5t31 -71.5 q0 -84 -20.5 -151.5t-51 -119t-66.5 -87t-67 -56.5z" />
<glyph unicode="&#x201e;" horiz-adv-x="784" d="M102 0zM102 -180q41 35 72 88t31 106q-29 20 -47.5 62.5t-18.5 101.5q0 57 32 71.5t77 14.5t75.5 -14.5t30.5 -71.5q0 -84 -20.5 -151.5t-51 -119t-66.5 -87t-66 -56.5zM430 -180q41 35 71.5 88t30.5 106q-29 20 -47 62.5t-18 101.5q0 57 31.5 71.5t76.5 14.5t76 -14.5 t31 -71.5q0 -84 -20.5 -151.5t-51 -119t-66.5 -87t-67 -56.5z" />
<glyph unicode="&#x2022;" horiz-adv-x="501" d="M102 688q0 43 12.5 67.5t33 38t47 17.5t57.5 4t58.5 -4t47 -17.5t30.5 -38t11 -67.5q0 -47 -11 -91t-30.5 -79t-46 -56.5t-59.5 -21.5t-60.5 21.5t-47 56.5t-31 79t-11.5 91z" />
<glyph unicode="&#x2026;" horiz-adv-x="1259" d="M102 176q0 57 32 71.5t77 14.5t75.5 -14.5t30.5 -71.5q0 -39 -8 -76t-22.5 -66.5t-33.5 -47t-42 -17.5t-43.5 17.5t-34.5 47t-22.5 66.5t-8.5 76zM522 176q0 57 32 71.5t77 14.5t75.5 -14.5t30.5 -71.5q0 -39 -8 -76t-22.5 -66.5t-33.5 -47t-42 -17.5t-43.5 17.5 t-34.5 47t-22.5 66.5t-8.5 76zM942 176q0 57 32 71.5t77 14.5t75.5 -14.5t30.5 -71.5q0 -39 -8 -76t-22.5 -66.5t-33.5 -47t-42 -17.5t-43.5 17.5t-35 47t-22.5 66.5t-8 76z" />
<glyph unicode="&#x202f;" horiz-adv-x="356" />
<glyph unicode="&#x2039;" horiz-adv-x="655" d="M164 633q0 35 18.5 87t56 106.5t95 106.5t137.5 87l21 -55q-90 -111 -129 -202t-39 -130q0 -41 38.5 -131t129.5 -201l-21 -55q-80 35 -137.5 87t-95 106.5t-56 106.5t-18.5 87z" />
<glyph unicode="&#x203a;" horiz-adv-x="655" d="M164 301q90 111 129 201t39 131q0 39 -39 130t-129 202l20 55q80 -35 137.5 -87t95.5 -106.5t56.5 -106.5t18.5 -87t-18.5 -87t-56.5 -106.5t-95.5 -106.5t-137.5 -87z" />
<glyph unicode="&#x205f;" horiz-adv-x="446" />
<glyph unicode="&#x20ac;" d="M92 469v88h131q-6 43 -11 87t-9 91h-111v88h107v41q0 150 32.5 240t89 138t132 63.5t159.5 15.5q70 0 135.5 -18.5t115.5 -62.5t84 -118.5t40 -185.5l-153 -35q-2 104 -22.5 170t-51.5 102.5t-70 51t-78 14.5q-47 0 -90 -12.5t-74.5 -51t-50 -112.5t-18.5 -199v-41h334 v-88h-332q4 -47 7 -92t7 -86h318v-88h-305q14 -94 34.5 -171t47 -132t57.5 -85t65 -30q57 0 103.5 93.5t79.5 240.5l141 -29q-29 -86 -63.5 -156.5t-76.5 -121.5t-88 -80t-96 -29q-61 0 -117.5 37t-103.5 102.5t-86 157.5t-63 203h-150z" />
<glyph unicode="&#x2122;" horiz-adv-x="1755" d="M82 1284v78h551v-96l-225 8l18 -793h-139l18 795zM655 481q2 180 26 344t63.5 288t92 196.5t111.5 72.5q41 0 68.5 -36.5t48 -98t34 -139.5t23.5 -160q12 82 25.5 160t34 139.5t49.5 98t69 36.5q57 0 110.5 -72.5t93.5 -196.5t63.5 -287.5t23.5 -344.5h-139 q0 166 -12.5 316.5t-31.5 265.5t-47 182.5t-61 67.5t-54 -67.5t-34.5 -182.5t-18.5 -265.5t-5 -316.5h-129q0 166 -5 316.5t-18.5 265.5t-35 182.5t-52.5 67.5q-35 0 -62.5 -67.5t-47 -182.5t-30.5 -265.5t-11 -316.5h-142z" />
<glyph unicode="&#x25fc;" horiz-adv-x="1054" d="M0 0v1055h1055v-1055h-1055z" />
<glyph unicode="&#xfb01;" horiz-adv-x="1144" d="M102 0zM102 958v99h164q8 113 26.5 206t48.5 160.5t72 105.5t99 38q29 0 61.5 -11.5t63.5 -38t53.5 -71.5t32.5 -115l-162 -49q-8 92 -30.5 135t-55.5 43q-25 0 -40 -29.5t-25.5 -84t-14.5 -128t-6 -161.5h217v-119l-217 8v-28.5v-51.5t1 -95t2 -161.5t3 -250t6 -359.5 h-155q2 211 4 359.5t4 250t2 163t1 97t2 52t1 30.5zM795 1378q0 49 27.5 62.5t66.5 13.5t65.5 -13.5t26.5 -62.5q0 -33 -7 -65.5t-19.5 -58t-29 -41t-36.5 -15.5t-37.5 15.5t-30 41t-19.5 58.5t-7 65zM811 1057h160l-23 -1057h-114z" />
<glyph unicode="&#xfb02;" horiz-adv-x="1114" d="M102 0zM102 958v99h164q8 113 26.5 206t48.5 160.5t72 105.5t99 38q29 0 61.5 -11.5t63.5 -38t53.5 -71.5t32.5 -115l-162 -49q-8 92 -30.5 135t-55.5 43q-25 0 -40 -29.5t-25.5 -84t-14.5 -128t-6 -161.5h217v-119l-217 8v-28.5v-51.5t1 -95t2 -161.5t3 -250t6 -359.5 h-155q2 211 4 359.5t4 250t2 163t1 97t2 52t1 30.5zM793 1536h160l-23 -1536h-115z" />
</font>
</defs>
</svg>
